<?xml version="1.0" encoding="UTF-8" standalone="no"?>
<!DOCTYPE svg PUBLIC "-//W3C//DTD SVG 1.1//EN"
 "http://www.w3.org/Graphics/SVG/1.1/DTD/svg11.dtd">
<!-- Generated by graphviz version 12.1.2 (20240928.0832)
 -->
<!-- Title: G Pages: 1 -->
<svg width="1169pt" height="1014pt"
 viewBox="0.00 0.00 1169.20 1014.30" xmlns="http://www.w3.org/2000/svg" xmlns:xlink="http://www.w3.org/1999/xlink">
<g id="graph0" class="graph" transform="scale(1 1) rotate(0) translate(21.6 992.7)">
<title>G</title>
<polygon fill="#111111" stroke="none" points="-21.6,21.6 -21.6,-992.7 1147.6,-992.7 1147.6,21.6 -21.6,21.6"/>
<!-- example.js -->
<g id="node1" class="node">
<title>example.js</title>
<path fill="none" stroke="#c6c5fe" d="M73.33,-529.91C73.33,-529.91 7.92,-529.91 7.92,-529.91 3.96,-529.91 0,-525.95 0,-522 0,-522 0,-514.08 0,-514.08 0,-510.12 3.96,-506.16 7.92,-506.16 7.92,-506.16 73.33,-506.16 73.33,-506.16 77.29,-506.16 81.25,-510.12 81.25,-514.08 81.25,-514.08 81.25,-522 81.25,-522 81.25,-525.95 77.29,-529.91 73.33,-529.91"/>
<text text-anchor="middle" x="40.62" y="-512.61" font-family="Arial" font-size="14.00" fill="#c6c5fe">example.js</text>
</g>
<!-- page.scss -->
<g id="node2" class="node">
<title>page.scss</title>
<path fill="none" stroke="#cfffac" d="M238.96,-949.91C238.96,-949.91 178.04,-949.91 178.04,-949.91 174.08,-949.91 170.12,-945.95 170.12,-942 170.12,-942 170.12,-934.08 170.12,-934.08 170.12,-930.12 174.08,-926.16 178.04,-926.16 178.04,-926.16 238.96,-926.16 238.96,-926.16 242.92,-926.16 246.88,-930.12 246.88,-934.08 246.88,-934.08 246.88,-942 246.88,-942 246.88,-945.95 242.92,-949.91 238.96,-949.91"/>
<text text-anchor="middle" x="208.5" y="-932.61" font-family="Arial" font-size="14.00" fill="#cfffac">page.scss</text>
</g>
<!-- example.js&#45;&gt;page.scss -->
<g id="edge1" class="edge">
<title>example.js&#45;&gt;page.scss</title>
<path fill="none" stroke="#757575" d="M42.18,-530.02C45.24,-590.23 61.85,-859.3 117.25,-917.04 127.99,-928.23 143.44,-933.97 158.53,-936.78"/>
<polygon fill="#757575" stroke="#757575" points="158.03,-940.24 168.42,-938.18 159.01,-933.31 158.03,-940.24"/>
</g>
<!-- src/canvas.js -->
<g id="node3" class="node">
<title>src/canvas.js</title>
<path fill="none" stroke="#c6c5fe" d="M692.83,-115.91C692.83,-115.91 614.67,-115.91 614.67,-115.91 610.71,-115.91 606.75,-111.95 606.75,-108 606.75,-108 606.75,-100.08 606.75,-100.08 606.75,-96.12 610.71,-92.16 614.67,-92.16 614.67,-92.16 692.83,-92.16 692.83,-92.16 696.79,-92.16 700.75,-96.12 700.75,-100.08 700.75,-100.08 700.75,-108 700.75,-108 700.75,-111.95 696.79,-115.91 692.83,-115.91"/>
<text text-anchor="middle" x="653.75" y="-98.61" font-family="Arial" font-size="14.00" fill="#c6c5fe">src/canvas.js</text>
</g>
<!-- example.js&#45;&gt;src/canvas.js -->
<g id="edge2" class="edge">
<title>example.js&#45;&gt;src/canvas.js</title>
<path fill="none" stroke="#757575" d="M42.09,-505.89C44.63,-446.08 59.02,-183.64 117.25,-133.04 187.12,-72.32 471.5,-88.43 595.02,-98.65"/>
<polygon fill="#757575" stroke="#757575" points="594.69,-102.13 604.95,-99.49 595.28,-95.16 594.69,-102.13"/>
</g>
<!-- src/components/Code.js -->
<g id="node4" class="node">
<title>src/components/Code.js</title>
<path fill="none" stroke="#c6c5fe" d="M281.33,-549.91C281.33,-549.91 135.67,-549.91 135.67,-549.91 131.71,-549.91 127.75,-545.95 127.75,-542 127.75,-542 127.75,-534.08 127.75,-534.08 127.75,-530.12 131.71,-526.16 135.67,-526.16 135.67,-526.16 281.33,-526.16 281.33,-526.16 285.29,-526.16 289.25,-530.12 289.25,-534.08 289.25,-534.08 289.25,-542 289.25,-542 289.25,-545.95 285.29,-549.91 281.33,-549.91"/>
<text text-anchor="middle" x="208.5" y="-532.61" font-family="Arial" font-size="14.00" fill="#c6c5fe">src/components/Code.js</text>
</g>
<!-- example.js&#45;&gt;src/components/Code.js -->
<g id="edge3" class="edge">
<title>example.js&#45;&gt;src/components/Code.js</title>
<path fill="none" stroke="#757575" d="M81.36,-522.83C92,-524.11 103.95,-525.55 116.15,-527.02"/>
<polygon fill="#757575" stroke="#757575" points="115.55,-530.48 125.9,-528.2 116.39,-523.53 115.55,-530.48"/>
</g>
<!-- src/components/Debug.js -->
<g id="node5" class="node">
<title>src/components/Debug.js</title>
<path fill="none" stroke="#c6c5fe" d="M285.08,-629.91C285.08,-629.91 131.92,-629.91 131.92,-629.91 127.96,-629.91 124,-625.95 124,-622 124,-622 124,-614.08 124,-614.08 124,-610.12 127.96,-606.16 131.92,-606.16 131.92,-606.16 285.08,-606.16 285.08,-606.16 289.04,-606.16 293,-610.12 293,-614.08 293,-614.08 293,-622 293,-622 293,-625.95 289.04,-629.91 285.08,-629.91"/>
<text text-anchor="middle" x="208.5" y="-612.61" font-family="Arial" font-size="14.00" fill="#c6c5fe">src/components/Debug.js</text>
</g>
<!-- example.js&#45;&gt;src/components/Debug.js -->
<g id="edge4" class="edge">
<title>example.js&#45;&gt;src/components/Debug.js</title>
<path fill="none" stroke="#757575" d="M50.76,-530.15C63.76,-546.56 89.16,-575.67 117.25,-592.04 123.78,-595.84 130.91,-599.12 138.2,-601.94"/>
<polygon fill="#757575" stroke="#757575" points="136.93,-605.2 147.52,-605.25 139.26,-598.61 136.93,-605.2"/>
</g>
<!-- src/components/Disclosable.js -->
<g id="node6" class="node">
<title>src/components/Disclosable.js</title>
<path fill="none" stroke="#c6c5fe" d="M539.58,-431.91C539.58,-431.91 357.17,-431.91 357.17,-431.91 353.21,-431.91 349.25,-427.95 349.25,-424 349.25,-424 349.25,-416.08 349.25,-416.08 349.25,-412.12 353.21,-408.16 357.17,-408.16 357.17,-408.16 539.58,-408.16 539.58,-408.16 543.54,-408.16 547.5,-412.12 547.5,-416.08 547.5,-416.08 547.5,-424 547.5,-424 547.5,-427.95 543.54,-431.91 539.58,-431.91"/>
<text text-anchor="middle" x="448.38" y="-414.61" font-family="Arial" font-size="14.00" fill="#c6c5fe">src/components/Disclosable.js</text>
</g>
<!-- example.js&#45;&gt;src/components/Disclosable.js -->
<g id="edge5" class="edge">
<title>example.js&#45;&gt;src/components/Disclosable.js</title>
<path fill="none" stroke="#757575" d="M61.44,-505.73C76.29,-497.03 97.38,-485.77 117.25,-479.04 188.8,-454.81 272.62,-439.99 337.89,-431.26"/>
<polygon fill="#757575" stroke="#757575" points="338.07,-434.76 347.53,-430 337.16,-427.82 338.07,-434.76"/>
</g>
<!-- src/components/Example.js -->
<g id="node7" class="node">
<title>src/components/Example.js</title>
<path fill="none" stroke="#c6c5fe" d="M291.83,-709.91C291.83,-709.91 125.17,-709.91 125.17,-709.91 121.21,-709.91 117.25,-705.95 117.25,-702 117.25,-702 117.25,-694.08 117.25,-694.08 117.25,-690.12 121.21,-686.16 125.17,-686.16 125.17,-686.16 291.83,-686.16 291.83,-686.16 295.79,-686.16 299.75,-690.12 299.75,-694.08 299.75,-694.08 299.75,-702 299.75,-702 299.75,-705.95 295.79,-709.91 291.83,-709.91"/>
<text text-anchor="middle" x="208.5" y="-692.61" font-family="Arial" font-size="14.00" fill="#c6c5fe">src/components/Example.js</text>
</g>
<!-- example.js&#45;&gt;src/components/Example.js -->
<g id="edge6" class="edge">
<title>example.js&#45;&gt;src/components/Example.js</title>
<path fill="none" stroke="#757575" d="M44.05,-530.11C50.51,-559.12 70.9,-633.2 117.25,-672.04 121.33,-675.46 125.84,-678.43 130.6,-681.01"/>
<polygon fill="#757575" stroke="#757575" points="128.77,-684.01 139.3,-685.13 131.76,-677.68 128.77,-684.01"/>
</g>
<!-- src/components/Flex.js -->
<g id="node8" class="node">
<title>src/components/Flex.js</title>
<path fill="none" stroke="#c6c5fe" d="M517.83,-271.91C517.83,-271.91 378.92,-271.91 378.92,-271.91 374.96,-271.91 371,-267.95 371,-264 371,-264 371,-256.08 371,-256.08 371,-252.12 374.96,-248.16 378.92,-248.16 378.92,-248.16 517.83,-248.16 517.83,-248.16 521.79,-248.16 525.75,-252.12 525.75,-256.08 525.75,-256.08 525.75,-264 525.75,-264 525.75,-267.95 521.79,-271.91 517.83,-271.91"/>
<text text-anchor="middle" x="448.38" y="-254.61" font-family="Arial" font-size="14.00" fill="#c6c5fe">src/components/Flex.js</text>
</g>
<!-- example.js&#45;&gt;src/components/Flex.js -->
<g id="edge7" class="edge">
<title>example.js&#45;&gt;src/components/Flex.js</title>
<path fill="none" stroke="#757575" d="M42.23,-505.73C44.68,-470.22 56.91,-366.93 117.25,-317.04 184.58,-261.36 286.56,-251.4 359.34,-252.67"/>
<polygon fill="#757575" stroke="#757575" points="359.16,-256.17 369.25,-252.93 359.34,-249.17 359.16,-256.17"/>
</g>
<!-- src/components/Heading.js -->
<g id="node9" class="node">
<title>src/components/Heading.js</title>
<path fill="none" stroke="#c6c5fe" d="M530.21,-389.91C530.21,-389.91 366.54,-389.91 366.54,-389.91 362.58,-389.91 358.62,-385.95 358.62,-382 358.62,-382 358.62,-374.08 358.62,-374.08 358.62,-370.12 362.58,-366.16 366.54,-366.16 366.54,-366.16 530.21,-366.16 530.21,-366.16 534.17,-366.16 538.12,-370.12 538.12,-374.08 538.12,-374.08 538.12,-382 538.12,-382 538.12,-385.95 534.17,-389.91 530.21,-389.91"/>
<text text-anchor="middle" x="448.38" y="-372.61" font-family="Arial" font-size="14.00" fill="#c6c5fe">src/components/Heading.js</text>
</g>
<!-- example.js&#45;&gt;src/components/Heading.js -->
<g id="edge8" class="edge">
<title>example.js&#45;&gt;src/components/Heading.js</title>
<path fill="none" stroke="#757575" d="M48.89,-505.66C60.66,-486.83 85.79,-451.35 117.25,-434.04 187.81,-395.22 278.68,-382.02 347.22,-378.07"/>
<polygon fill="#757575" stroke="#757575" points="347.13,-381.58 356.94,-377.57 346.77,-374.59 347.13,-381.58"/>
</g>
<!-- src/components/LogoWithSpider.js -->
<g id="node10" class="node">
<title>src/components/LogoWithSpider.js</title>
<path fill="none" stroke="#c6c5fe" d="M553.08,-789.91C553.08,-789.91 343.67,-789.91 343.67,-789.91 339.71,-789.91 335.75,-785.95 335.75,-782 335.75,-782 335.75,-774.08 335.75,-774.08 335.75,-770.12 339.71,-766.16 343.67,-766.16 343.67,-766.16 553.08,-766.16 553.08,-766.16 557.04,-766.16 561,-770.12 561,-774.08 561,-774.08 561,-782 561,-782 561,-785.95 557.04,-789.91 553.08,-789.91"/>
<text text-anchor="middle" x="448.38" y="-772.61" font-family="Arial" font-size="14.00" fill="#c6c5fe">src/components/LogoWithSpider.js</text>
</g>
<!-- example.js&#45;&gt;src/components/LogoWithSpider.js -->
<g id="edge9" class="edge">
<title>example.js&#45;&gt;src/components/LogoWithSpider.js</title>
<path fill="none" stroke="#757575" d="M41.27,-530.29C40.88,-569.94 45.55,-695.42 117.25,-752.04 192.63,-811.56 310.22,-804.47 382.82,-792.36"/>
<polygon fill="#757575" stroke="#757575" points="383.34,-795.82 392.58,-790.64 382.13,-788.92 383.34,-795.82"/>
</g>
<!-- src/components/Section.js -->
<g id="node11" class="node">
<title>src/components/Section.js</title>
<path fill="none" stroke="#c6c5fe" d="M287.71,-349.91C287.71,-349.91 129.29,-349.91 129.29,-349.91 125.33,-349.91 121.38,-345.95 121.38,-342 121.38,-342 121.38,-334.08 121.38,-334.08 121.38,-330.12 125.33,-326.16 129.29,-326.16 129.29,-326.16 287.71,-326.16 287.71,-326.16 291.67,-326.16 295.62,-330.12 295.62,-334.08 295.62,-334.08 295.62,-342 295.62,-342 295.62,-345.95 291.67,-349.91 287.71,-349.91"/>
<text text-anchor="middle" x="208.5" y="-332.61" font-family="Arial" font-size="14.00" fill="#c6c5fe">src/components/Section.js</text>
</g>
<!-- example.js&#45;&gt;src/components/Section.js -->
<g id="edge10" class="edge">
<title>example.js&#45;&gt;src/components/Section.js</title>
<path fill="none" stroke="#757575" d="M44.25,-505.75C51.03,-476.95 71.9,-404.62 117.25,-366.04 122.29,-361.75 127.99,-358.11 134.01,-355.04"/>
<polygon fill="#757575" stroke="#757575" points="135.32,-358.28 143,-350.99 132.44,-351.9 135.32,-358.28"/>
</g>
<!-- src/decorators/literal.js -->
<g id="node12" class="node">
<title>src/decorators/literal.js</title>
<path fill="none" stroke="#c6c5fe" d="M276.08,-907.91C276.08,-907.91 140.92,-907.91 140.92,-907.91 136.96,-907.91 133,-903.95 133,-900 133,-900 133,-892.08 133,-892.08 133,-888.12 136.96,-884.16 140.92,-884.16 140.92,-884.16 276.08,-884.16 276.08,-884.16 280.04,-884.16 284,-888.12 284,-892.08 284,-892.08 284,-900 284,-900 284,-903.95 280.04,-907.91 276.08,-907.91"/>
<text text-anchor="middle" x="208.5" y="-890.61" font-family="Arial" font-size="14.00" fill="#c6c5fe">src/decorators/literal.js</text>
</g>
<!-- example.js&#45;&gt;src/decorators/literal.js -->
<g id="edge11" class="edge">
<title>example.js&#45;&gt;src/decorators/literal.js</title>
<path fill="none" stroke="#757575" d="M42.6,-530.38C47.31,-586.71 69.38,-818.75 117.25,-870.04 120,-872.99 123.07,-875.61 126.36,-877.94"/>
<polygon fill="#757575" stroke="#757575" points="124.47,-880.89 134.85,-882.99 128.05,-874.87 124.47,-880.89"/>
</g>
<!-- src/decorators/styled.js -->
<g id="node13" class="node">
<title>src/decorators/styled.js</title>
<path fill="none" stroke="#c6c5fe" d="M517.46,-671.91C517.46,-671.91 379.29,-671.91 379.29,-671.91 375.33,-671.91 371.38,-667.95 371.38,-664 371.38,-664 371.38,-656.08 371.38,-656.08 371.38,-652.12 375.33,-648.16 379.29,-648.16 379.29,-648.16 517.46,-648.16 517.46,-648.16 521.42,-648.16 525.38,-652.12 525.38,-656.08 525.38,-656.08 525.38,-664 525.38,-664 525.38,-667.95 521.42,-671.91 517.46,-671.91"/>
<text text-anchor="middle" x="448.38" y="-654.61" font-family="Arial" font-size="14.00" fill="#c6c5fe">src/decorators/styled.js</text>
</g>
<!-- example.js&#45;&gt;src/decorators/styled.js -->
<g id="edge12" class="edge">
<title>example.js&#45;&gt;src/decorators/styled.js</title>
<path fill="none" stroke="#757575" d="M45.15,-530.37C53.15,-555.86 75.34,-614.04 117.25,-639.04 156.74,-662.59 276,-664.9 359.79,-663.32"/>
<polygon fill="#757575" stroke="#757575" points="359.67,-666.82 369.59,-663.11 359.52,-659.82 359.67,-666.82"/>
</g>
<!-- src/dom.js -->
<g id="node14" class="node">
<title>src/dom.js</title>
<path fill="none" stroke="#c6c5fe" d="M684.96,-648.91C684.96,-648.91 622.54,-648.91 622.54,-648.91 618.58,-648.91 614.62,-644.95 614.62,-641 614.62,-641 614.62,-633.08 614.62,-633.08 614.62,-629.12 618.58,-625.16 622.54,-625.16 622.54,-625.16 684.96,-625.16 684.96,-625.16 688.92,-625.16 692.88,-629.12 692.88,-633.08 692.88,-633.08 692.88,-641 692.88,-641 692.88,-644.95 688.92,-648.91 684.96,-648.91"/>
<text text-anchor="middle" x="653.75" y="-631.61" font-family="Arial" font-size="14.00" fill="#c6c5fe">src/dom.js</text>
</g>
<!-- example.js&#45;&gt;src/dom.js -->
<g id="edge13" class="edge">
<title>example.js&#45;&gt;src/dom.js</title>
<path fill="none" stroke="#757575" d="M41.82,-530.34C43.13,-566.75 52.57,-674.26 117.25,-719.04 152,-743.09 524.77,-719.15 561,-706.04 589.25,-695.81 616.04,-673.71 633.29,-657.26"/>
<polygon fill="#757575" stroke="#757575" points="635.66,-659.84 640.33,-650.33 630.75,-654.85 635.66,-659.84"/>
</g>
<!-- src/events.js -->
<g id="node15" class="node">
<title>src/events.js</title>
<path fill="none" stroke="#c6c5fe" d="M834.08,-787.91C834.08,-787.91 758.92,-787.91 758.92,-787.91 754.96,-787.91 751,-783.95 751,-780 751,-780 751,-772.08 751,-772.08 751,-768.12 754.96,-764.16 758.92,-764.16 758.92,-764.16 834.08,-764.16 834.08,-764.16 838.04,-764.16 842,-768.12 842,-772.08 842,-772.08 842,-780 842,-780 842,-783.95 838.04,-787.91 834.08,-787.91"/>
<text text-anchor="middle" x="796.5" y="-770.61" font-family="Arial" font-size="14.00" fill="#c6c5fe">src/events.js</text>
</g>
<!-- example.js&#45;&gt;src/events.js -->
<g id="edge14" class="edge">
<title>example.js&#45;&gt;src/events.js</title>
<path fill="none" stroke="#757575" d="M43.14,-530.34C49.4,-578.93 74.91,-756.46 117.25,-790.04 310.39,-943.18 641.03,-836.58 755.28,-792.57"/>
<polygon fill="#757575" stroke="#757575" points="756.51,-795.84 764.55,-788.94 753.96,-789.32 756.51,-795.84"/>
</g>
<!-- src/function.js -->
<g id="node16" class="node">
<title>src/function.js</title>
<path fill="none" stroke="#c6c5fe" d="M973.08,-488.91C973.08,-488.91 890.42,-488.91 890.42,-488.91 886.46,-488.91 882.5,-484.95 882.5,-481 882.5,-481 882.5,-473.08 882.5,-473.08 882.5,-469.12 886.46,-465.16 890.42,-465.16 890.42,-465.16 973.08,-465.16 973.08,-465.16 977.04,-465.16 981,-469.12 981,-473.08 981,-473.08 981,-481 981,-481 981,-484.95 977.04,-488.91 973.08,-488.91"/>
<text text-anchor="middle" x="931.75" y="-471.61" font-family="Arial" font-size="14.00" fill="#c6c5fe">src/function.js</text>
</g>
<!-- example.js&#45;&gt;src/function.js -->
<g id="edge15" class="edge">
<title>example.js&#45;&gt;src/function.js</title>
<path fill="none" stroke="#757575" d="M41.83,-505.78C43.19,-441.59 52.91,-145.01 117.25,-87.04 171.89,-37.81 373.84,-64.04 447.38,-64.04 447.38,-64.04 447.38,-64.04 654.75,-64.04 744.18,-64.04 785.62,-59.53 846.5,-125.04 891.8,-173.78 919.81,-382.78 928.13,-453.52"/>
<polygon fill="#757575" stroke="#757575" points="924.63,-453.67 929.25,-463.2 931.58,-452.87 924.63,-453.67"/>
</g>
<!-- src/json.js -->
<g id="node17" class="node">
<title>src/json.js</title>
<path fill="none" stroke="#c6c5fe" d="M478.46,-591.91C478.46,-591.91 418.29,-591.91 418.29,-591.91 414.33,-591.91 410.38,-587.95 410.38,-584 410.38,-584 410.38,-576.08 410.38,-576.08 410.38,-572.12 414.33,-568.16 418.29,-568.16 418.29,-568.16 478.46,-568.16 478.46,-568.16 482.42,-568.16 486.38,-572.12 486.38,-576.08 486.38,-576.08 486.38,-584 486.38,-584 486.38,-587.95 482.42,-591.91 478.46,-591.91"/>
<text text-anchor="middle" x="448.38" y="-574.61" font-family="Arial" font-size="14.00" fill="#c6c5fe">src/json.js</text>
</g>
<!-- example.js&#45;&gt;src/json.js -->
<g id="edge16" class="edge">
<title>example.js&#45;&gt;src/json.js</title>
<path fill="none" stroke="#757575" d="M59.01,-530.31C73.75,-540 95.86,-552.88 117.25,-559.04 214.35,-586.98 333.91,-586.43 399.19,-583.36"/>
<polygon fill="#757575" stroke="#757575" points="399.03,-586.87 408.84,-582.86 398.67,-579.88 399.03,-586.87"/>
</g>
<!-- src/object.js -->
<g id="node18" class="node">
<title>src/object.js</title>
<path fill="none" stroke="#cfffac" d="M832.21,-585.91C832.21,-585.91 760.79,-585.91 760.79,-585.91 756.83,-585.91 752.88,-581.95 752.88,-578 752.88,-578 752.88,-570.08 752.88,-570.08 752.88,-566.12 756.83,-562.16 760.79,-562.16 760.79,-562.16 832.21,-562.16 832.21,-562.16 836.17,-562.16 840.12,-566.12 840.12,-570.08 840.12,-570.08 840.12,-578 840.12,-578 840.12,-581.95 836.17,-585.91 832.21,-585.91"/>
<text text-anchor="middle" x="796.5" y="-568.61" font-family="Arial" font-size="14.00" fill="#cfffac">src/object.js</text>
</g>
<!-- example.js&#45;&gt;src/object.js -->
<g id="edge17" class="edge">
<title>example.js&#45;&gt;src/object.js</title>
<path fill="none" stroke="#757575" d="M43.19,-505.97C49.64,-458.32 75.78,-284.22 117.25,-251.04 194.28,-189.41 473.5,-193.48 561,-239.04 692.6,-307.56 765.62,-487.47 788,-551.23"/>
<polygon fill="#757575" stroke="#757575" points="784.55,-551.97 791.1,-560.3 791.17,-549.7 784.55,-551.97"/>
</g>
<!-- src/side&#45;effect.js -->
<g id="node19" class="node">
<title>src/side&#45;effect.js</title>
<path fill="none" stroke="#c6c5fe" d="M702.58,-195.91C702.58,-195.91 604.92,-195.91 604.92,-195.91 600.96,-195.91 597,-191.95 597,-188 597,-188 597,-180.08 597,-180.08 597,-176.12 600.96,-172.16 604.92,-172.16 604.92,-172.16 702.58,-172.16 702.58,-172.16 706.54,-172.16 710.5,-176.12 710.5,-180.08 710.5,-180.08 710.5,-188 710.5,-188 710.5,-191.95 706.54,-195.91 702.58,-195.91"/>
<text text-anchor="middle" x="653.75" y="-178.61" font-family="Arial" font-size="14.00" fill="#c6c5fe">src/side&#45;effect.js</text>
</g>
<!-- example.js&#45;&gt;src/side&#45;effect.js -->
<g id="edge18" class="edge">
<title>example.js&#45;&gt;src/side&#45;effect.js</title>
<path fill="none" stroke="#757575" d="M42.68,-505.79C47.48,-452.95 69.2,-245.45 117.25,-206.04 259.05,-89.71 499.96,-139.48 603.29,-168.53"/>
<polygon fill="#757575" stroke="#757575" points="602.28,-171.88 612.86,-171.28 604.22,-165.15 602.28,-171.88"/>
</g>
<!-- src/string.js -->
<g id="node20" class="node">
<title>src/string.js</title>
<path fill="none" stroke="#cfffac" d="M1105.71,-155.91C1105.71,-155.91 1037.29,-155.91 1037.29,-155.91 1033.33,-155.91 1029.38,-151.95 1029.38,-148 1029.38,-148 1029.38,-140.08 1029.38,-140.08 1029.38,-136.12 1033.33,-132.16 1037.29,-132.16 1037.29,-132.16 1105.71,-132.16 1105.71,-132.16 1109.67,-132.16 1113.62,-136.12 1113.62,-140.08 1113.62,-140.08 1113.62,-148 1113.62,-148 1113.62,-151.95 1109.67,-155.91 1105.71,-155.91"/>
<text text-anchor="middle" x="1071.5" y="-138.61" font-family="Arial" font-size="14.00" fill="#cfffac">src/string.js</text>
</g>
<!-- example.js&#45;&gt;src/string.js -->
<g id="edge19" class="edge">
<title>example.js&#45;&gt;src/string.js</title>
<path fill="none" stroke="#757575" d="M41.68,-505.73C42.22,-438.53 48.45,-116.57 117.25,-53.04 225.4,46.83 300.16,-26.04 447.38,-26.04 447.38,-26.04 447.38,-26.04 797.5,-26.04 896.11,-26.04 999.53,-91.71 1045.7,-125.07"/>
<polygon fill="#757575" stroke="#757575" points="1043.57,-127.85 1053.7,-130.96 1047.72,-122.21 1043.57,-127.85"/>
</g>
<!-- src/transform.js -->
<g id="node21" class="node">
<title>src/transform.js</title>
<path fill="none" stroke="#c6c5fe" d="M494.96,-473.91C494.96,-473.91 401.79,-473.91 401.79,-473.91 397.83,-473.91 393.88,-469.95 393.88,-466 393.88,-466 393.88,-458.08 393.88,-458.08 393.88,-454.12 397.83,-450.16 401.79,-450.16 401.79,-450.16 494.96,-450.16 494.96,-450.16 498.92,-450.16 502.88,-454.12 502.88,-458.08 502.88,-458.08 502.88,-466 502.88,-466 502.88,-469.95 498.92,-473.91 494.96,-473.91"/>
<text text-anchor="middle" x="448.38" y="-456.61" font-family="Arial" font-size="14.00" fill="#c6c5fe">src/transform.js</text>
</g>
<!-- example.js&#45;&gt;src/transform.js -->
<g id="edge20" class="edge">
<title>example.js&#45;&gt;src/transform.js</title>
<path fill="none" stroke="#757575" d="M81.64,-512.51C151.79,-502.83 297.55,-482.72 382.35,-471.01"/>
<polygon fill="#757575" stroke="#757575" points="382.72,-474.49 392.14,-469.66 381.76,-467.56 382.72,-474.49"/>
</g>
<!-- src/canvas.js&#45;&gt;src/function.js -->
<g id="edge23" class="edge">
<title>src/canvas.js&#45;&gt;src/function.js</title>
<path fill="none" stroke="#757575" d="M700.87,-114.15C744.44,-126.04 808.6,-150 846.5,-194.04 913.38,-271.75 927.18,-400.78 930.02,-453.5"/>
<polygon fill="#757575" stroke="#757575" points="926.52,-453.56 930.46,-463.4 933.51,-453.26 926.52,-453.56"/>
</g>
<!-- src/components/Code.js&#45;&gt;src/decorators/styled.js -->
<g id="edge24" class="edge">
<title>src/components/Code.js&#45;&gt;src/decorators/styled.js</title>
<path fill="none" stroke="#757575" d="M233.62,-550.41C276.2,-572.25 364.81,-617.69 413.51,-642.67"/>
<polygon fill="#757575" stroke="#757575" points="411.71,-645.68 422.2,-647.13 414.9,-639.45 411.71,-645.68"/>
</g>
<!-- src/components/Code.js&#45;&gt;src/dom.js -->
<g id="edge25" class="edge">
<title>src/components/Code.js&#45;&gt;src/dom.js</title>
<path fill="none" stroke="#757575" d="M289.41,-528.77C362.77,-523.46 473.08,-523.7 561,-559.04 591.34,-571.23 618.86,-597.64 635.67,-616.34"/>
<polygon fill="#757575" stroke="#757575" points="632.84,-618.42 642.04,-623.67 638.12,-613.82 632.84,-618.42"/>
</g>
<!-- src/components/Code.js&#45;&gt;src/function.js -->
<g id="edge26" class="edge">
<title>src/components/Code.js&#45;&gt;src/function.js</title>
<path fill="none" stroke="#757575" d="M289.58,-527.27C304.89,-525.39 320.8,-523.55 335.75,-522.04 531.16,-502.28 763.48,-487.1 870.85,-480.56"/>
<polygon fill="#757575" stroke="#757575" points="870.81,-484.07 880.58,-479.97 870.38,-477.08 870.81,-484.07"/>
</g>
<!-- src/components/Code.js&#45;&gt;src/json.js -->
<g id="edge27" class="edge">
<title>src/components/Code.js&#45;&gt;src/json.js</title>
<path fill="none" stroke="#757575" d="M279.58,-550.41C318,-557.19 364.64,-565.43 398.99,-571.5"/>
<polygon fill="#757575" stroke="#757575" points="398.19,-574.91 408.65,-573.2 399.41,-568.01 398.19,-574.91"/>
</g>
<!-- src/components/Debug.js&#45;&gt;src/decorators/styled.js -->
<g id="edge28" class="edge">
<title>src/components/Debug.js&#45;&gt;src/decorators/styled.js</title>
<path fill="none" stroke="#757575" d="M279.58,-630.41C306.81,-635.22 338.16,-640.75 366.34,-645.73"/>
<polygon fill="#757575" stroke="#757575" points="365.43,-649.12 375.89,-647.42 366.65,-642.23 365.43,-649.12"/>
</g>
<!-- src/components/Debug.js&#45;&gt;src/dom.js -->
<g id="edge29" class="edge">
<title>src/components/Debug.js&#45;&gt;src/dom.js</title>
<path fill="none" stroke="#757575" d="M293.39,-621.63C384.76,-625.55 527.86,-631.68 602.95,-634.9"/>
<polygon fill="#757575" stroke="#757575" points="602.74,-638.4 612.88,-635.33 603.04,-631.4 602.74,-638.4"/>
</g>
<!-- src/components/Debug.js&#45;&gt;src/json.js -->
<g id="edge30" class="edge">
<title>src/components/Debug.js&#45;&gt;src/json.js</title>
<path fill="none" stroke="#757575" d="M286.73,-605.7C323.58,-599.81 366.55,-592.95 398.77,-587.8"/>
<polygon fill="#757575" stroke="#757575" points="399.31,-591.26 408.63,-586.23 398.2,-584.35 399.31,-591.26"/>
</g>
<!-- src/components/Disclosable.js&#45;&gt;src/dom.js -->
<g id="edge31" class="edge">
<title>src/components/Disclosable.js&#45;&gt;src/dom.js</title>
<path fill="none" stroke="#757575" d="M546.9,-432.29C551.89,-434.76 556.64,-437.65 561,-441.04 617.5,-484.84 640.7,-571.8 648.88,-613.57"/>
<polygon fill="#757575" stroke="#757575" points="645.42,-614.06 650.65,-623.27 652.3,-612.81 645.42,-614.06"/>
</g>
<!-- src/components/Disclosable.js&#45;&gt;src/function.js -->
<g id="edge32" class="edge">
<title>src/components/Disclosable.js&#45;&gt;src/function.js</title>
<path fill="none" stroke="#757575" d="M547.7,-431.67C628.07,-441.17 744.64,-454.96 846.5,-467.04 854.35,-467.97 862.62,-468.95 870.78,-469.92"/>
<polygon fill="#757575" stroke="#757575" points="870.34,-473.39 880.69,-471.09 871.17,-466.44 870.34,-473.39"/>
</g>
<!-- src/components/Example.js&#45;&gt;src/decorators/styled.js -->
<g id="edge33" class="edge">
<title>src/components/Example.js&#45;&gt;src/decorators/styled.js</title>
<path fill="none" stroke="#757575" d="M286.73,-685.7C310.04,-681.98 335.79,-677.86 359.72,-674.04"/>
<polygon fill="#757575" stroke="#757575" points="360.12,-677.52 369.44,-672.49 359.02,-670.61 360.12,-677.52"/>
</g>
<!-- src/components/Example.js&#45;&gt;src/dom.js -->
<g id="edge34" class="edge">
<title>src/components/Example.js&#45;&gt;src/dom.js</title>
<path fill="none" stroke="#757575" d="M300.15,-703.42C372.01,-705.37 474.38,-702.95 561,-681.04 583.05,-675.46 606.12,-664.37 623.62,-654.71"/>
<polygon fill="#757575" stroke="#757575" points="624.94,-657.98 631.91,-650 621.48,-651.9 624.94,-657.98"/>
</g>
<!-- src/components/Example.js&#45;&gt;src/function.js -->
<g id="edge35" class="edge">
<title>src/components/Example.js&#45;&gt;src/function.js</title>
<path fill="none" stroke="#757575" d="M219.39,-710.12C238.83,-732.81 284.63,-781.11 335.75,-799.04 371.11,-811.44 830.59,-809.39 846.5,-797.04 852.55,-792.34 906.94,-573.59 924.97,-500.52"/>
<polygon fill="#757575" stroke="#757575" points="928.36,-501.39 927.36,-490.84 921.57,-499.71 928.36,-501.39"/>
</g>
<!-- src/components/Flex.js&#45;&gt;src/dom.js -->
<g id="edge36" class="edge">
<title>src/components/Flex.js&#45;&gt;src/dom.js</title>
<path fill="none" stroke="#757575" d="M485.17,-272.31C509.84,-282.52 541.57,-299.39 561,-324.04 631.91,-413.97 648.04,-557.16 651.69,-613.33"/>
<polygon fill="#757575" stroke="#757575" points="648.2,-613.5 652.25,-623.29 655.19,-613.11 648.2,-613.5"/>
</g>
<!-- src/components/Flex.js&#45;&gt;src/function.js -->
<g id="edge37" class="edge">
<title>src/components/Flex.js&#45;&gt;src/function.js</title>
<path fill="none" stroke="#757575" d="M501.56,-247.69C583.18,-231.57 742.47,-213.27 846.5,-286.04 903.01,-325.56 922.06,-411.84 928.12,-453.54"/>
<polygon fill="#757575" stroke="#757575" points="924.61,-453.77 929.38,-463.23 931.56,-452.86 924.61,-453.77"/>
</g>
<!-- src/components/Heading.js&#45;&gt;src/dom.js -->
<g id="edge38" class="edge">
<title>src/components/Heading.js&#45;&gt;src/dom.js</title>
<path fill="none" stroke="#757575" d="M538.52,-385.97C546.66,-389.22 554.33,-393.49 561,-399.04 627.85,-454.71 646.13,-565.08 651.02,-613.43"/>
<polygon fill="#757575" stroke="#757575" points="647.52,-613.66 651.9,-623.31 654.5,-613.04 647.52,-613.66"/>
</g>
<!-- src/components/Heading.js&#45;&gt;src/function.js -->
<g id="edge39" class="edge">
<title>src/components/Heading.js&#45;&gt;src/function.js</title>
<path fill="none" stroke="#757575" d="M529,-390.37C609.55,-403.43 737.41,-425.76 846.5,-452.04 857.97,-454.8 870.19,-458.17 881.67,-461.54"/>
<polygon fill="#757575" stroke="#757575" points="880.36,-464.8 890.94,-464.3 882.36,-458.09 880.36,-464.8"/>
</g>
<!-- src/components/LogoWithSpider.js&#45;&gt;src/dom.js -->
<g id="edge40" class="edge">
<title>src/components/LogoWithSpider.js&#45;&gt;src/dom.js</title>
<path fill="none" stroke="#757575" d="M531.22,-765.73C541.69,-762.25 551.91,-757.77 561,-752.04 597.83,-728.79 626.3,-685.49 641.21,-659.17"/>
<polygon fill="#757575" stroke="#757575" points="644.12,-661.13 645.86,-650.68 637.98,-657.77 644.12,-661.13"/>
</g>
<!-- src/components/Section.js&#45;&gt;src/components/Heading.js -->
<g id="edge41" class="edge">
<title>src/components/Section.js&#45;&gt;src/components/Heading.js</title>
<path fill="none" stroke="#757575" d="M282.81,-350.37C308.13,-354.62 336.71,-359.43 362.86,-363.83"/>
<polygon fill="#757575" stroke="#757575" points="361.96,-367.22 372.4,-365.43 363.12,-360.32 361.96,-367.22"/>
</g>
<!-- src/components/Section.js&#45;&gt;src/dom.js -->
<g id="edge42" class="edge">
<title>src/components/Section.js&#45;&gt;src/dom.js</title>
<path fill="none" stroke="#757575" d="M296,-331.9C386.53,-327.34 520.99,-326.36 561,-357.04 643.11,-419.98 652.74,-558.23 653.17,-613.51"/>
<polygon fill="#757575" stroke="#757575" points="649.67,-613.32 653.14,-623.33 656.67,-613.34 649.67,-613.32"/>
</g>
<!-- src/components/Section.js&#45;&gt;src/function.js -->
<g id="edge43" class="edge">
<title>src/components/Section.js&#45;&gt;src/function.js</title>
<path fill="none" stroke="#757575" d="M289.71,-325.67C361.37,-316.85 468.94,-309.09 561,-325.04 693.77,-348.04 724.55,-369.72 846.5,-427.04 866.13,-436.26 887.11,-448.71 903.22,-458.87"/>
<polygon fill="#757575" stroke="#757575" points="900.99,-461.6 911.3,-464.04 904.76,-455.7 900.99,-461.6"/>
</g>
<!-- src/components/Section.js&#45;&gt;src/string.js -->
<g id="edge44" class="edge">
<title>src/components/Section.js&#45;&gt;src/string.js</title>
<path fill="none" stroke="#757575" d="M221.65,-325.89C242.96,-305.23 289.26,-263.13 335.75,-239.04 466.34,-171.37 505.67,-144.04 652.75,-144.04 652.75,-144.04 652.75,-144.04 797.5,-144.04 874.27,-144.04 963.19,-144.04 1018.14,-144.04"/>
<polygon fill="#757575" stroke="#757575" points="1017.82,-147.54 1027.82,-144.04 1017.82,-140.54 1017.82,-147.54"/>
</g>
<!-- src/decorators/literal.js&#45;&gt;src/dom.js -->
<g id="edge46" class="edge">
<title>src/decorators/literal.js&#45;&gt;src/dom.js</title>
<path fill="none" stroke="#757575" d="M284.16,-891.92C360.85,-884.2 480.13,-862.11 561,-799.04 607.71,-762.61 634.57,-695.3 646.05,-660.01"/>
<polygon fill="#757575" stroke="#757575" points="649.29,-661.39 648.92,-650.8 642.61,-659.31 649.29,-661.39"/>
</g>
<!-- src/decorators/literal.js&#45;&gt;src/function.js -->
<g id="edge47" class="edge">
<title>src/decorators/literal.js&#45;&gt;src/function.js</title>
<path fill="none" stroke="#757575" d="M268.49,-908.4C392.69,-930.69 683.1,-962.61 846.5,-815.04 848.01,-813.68 906.41,-576.2 925.07,-500.17"/>
<polygon fill="#757575" stroke="#757575" points="928.37,-501.43 927.35,-490.88 921.57,-499.76 928.37,-501.43"/>
</g>
<!-- src/decorators/literal.js&#45;&gt;src/json.js -->
<g id="edge48" class="edge">
<title>src/decorators/literal.js&#45;&gt;src/json.js</title>
<path fill="none" stroke="#757575" d="M216.06,-883.69C231.23,-855.01 269.77,-781.55 299.75,-719.04 316.61,-683.88 309.07,-667.47 335.75,-639.04 353.35,-620.29 378.25,-606.33 400.08,-596.72"/>
<polygon fill="#757575" stroke="#757575" points="401.24,-600.03 409.1,-592.93 398.53,-593.57 401.24,-600.03"/>
</g>
<!-- src/constants.js -->
<g id="node25" class="node">
<title>src/constants.js</title>
<path fill="none" stroke="#cfffac" d="M1118.08,-924.91C1118.08,-924.91 1024.92,-924.91 1024.92,-924.91 1020.96,-924.91 1017,-920.95 1017,-917 1017,-917 1017,-909.08 1017,-909.08 1017,-905.12 1020.96,-901.16 1024.92,-901.16 1024.92,-901.16 1118.08,-901.16 1118.08,-901.16 1122.04,-901.16 1126,-905.12 1126,-909.08 1126,-909.08 1126,-917 1126,-917 1126,-920.95 1122.04,-924.91 1118.08,-924.91"/>
<text text-anchor="middle" x="1071.5" y="-907.61" font-family="Arial" font-size="14.00" fill="#cfffac">src/constants.js</text>
</g>
<!-- src/decorators/literal.js&#45;&gt;src/constants.js -->
<g id="edge45" class="edge">
<title>src/decorators/literal.js&#45;&gt;src/constants.js</title>
<path fill="none" stroke="#757575" d="M272.81,-908.4C281.97,-910.87 291.19,-913.74 299.75,-917.04 316.83,-923.62 318.29,-931.53 335.75,-937.04 470.85,-979.63 511.1,-970.04 652.75,-970.04 652.75,-970.04 652.75,-970.04 797.5,-970.04 878.41,-970.04 970.02,-945.75 1023.88,-928.88"/>
<polygon fill="#757575" stroke="#757575" points="1024.88,-932.24 1033.34,-925.87 1022.75,-925.57 1024.88,-932.24"/>
</g>
<!-- src/decorators/styled.js&#45;&gt;src/dom.js -->
<g id="edge50" class="edge">
<title>src/decorators/styled.js&#45;&gt;src/dom.js</title>
<path fill="none" stroke="#757575" d="M525.68,-651.41C551.52,-648.49 579.7,-645.3 602.94,-642.67"/>
<polygon fill="#757575" stroke="#757575" points="603.21,-646.16 612.76,-641.56 602.43,-639.21 603.21,-646.16"/>
</g>
<!-- src/decorators/styled.js&#45;&gt;src/function.js -->
<g id="edge51" class="edge">
<title>src/decorators/styled.js&#45;&gt;src/function.js</title>
<path fill="none" stroke="#757575" d="M470.31,-672.33C533.65,-707.75 726.31,-802.22 846.5,-717.04 883.09,-691.1 914.66,-555.21 926.14,-500.19"/>
<polygon fill="#757575" stroke="#757575" points="929.51,-501.16 928.09,-490.67 922.65,-499.76 929.51,-501.16"/>
</g>
<!-- src/decorators/styled.js&#45;&gt;src/constants.js -->
<g id="edge49" class="edge">
<title>src/decorators/styled.js&#45;&gt;src/constants.js</title>
<path fill="none" stroke="#757575" d="M464.23,-672.17C517.01,-714.36 701.97,-854.51 882.5,-899.04 922.5,-908.9 968.62,-912.45 1005.16,-913.51"/>
<polygon fill="#757575" stroke="#757575" points="1005.08,-917.01 1015.16,-913.74 1005.24,-910.01 1005.08,-917.01"/>
</g>
<!-- src/dom.js&#45;&gt;src/events.js -->
<g id="edge55" class="edge">
<title>src/dom.js&#45;&gt;src/events.js</title>
<path fill="none" stroke="#757575" d="M667.24,-649.37C691.61,-673.44 745.7,-726.86 775.26,-756.04"/>
<polygon fill="#757575" stroke="#757575" points="772.59,-758.33 782.16,-762.86 777.51,-753.35 772.59,-758.33"/>
</g>
<!-- src/dom.js&#45;&gt;src/function.js -->
<g id="edge56" class="edge">
<title>src/dom.js&#45;&gt;src/function.js</title>
<path fill="none" stroke="#757575" d="M693.17,-636.59C734.27,-634.4 799.85,-625.82 846.5,-595.04 882.35,-571.39 907.84,-526.84 920.85,-499.76"/>
<polygon fill="#757575" stroke="#757575" points="924.01,-501.26 925.02,-490.71 917.66,-498.33 924.01,-501.26"/>
</g>
<!-- src/dom.js&#45;&gt;src/object.js -->
<g id="edge57" class="edge">
<title>src/dom.js&#45;&gt;src/object.js</title>
<path fill="none" stroke="#757575" d="M682.22,-624.74C703.73,-615.11 733.88,-601.62 757.67,-590.97"/>
<polygon fill="#757575" stroke="#757575" points="759.02,-594.2 766.72,-586.92 756.16,-587.81 759.02,-594.2"/>
</g>
<!-- src/array.js -->
<g id="node22" class="node">
<title>src/array.js</title>
<path fill="none" stroke="#cfffac" d="M829.21,-665.91C829.21,-665.91 763.79,-665.91 763.79,-665.91 759.83,-665.91 755.88,-661.95 755.88,-658 755.88,-658 755.88,-650.08 755.88,-650.08 755.88,-646.12 759.83,-642.16 763.79,-642.16 763.79,-642.16 829.21,-642.16 829.21,-642.16 833.17,-642.16 837.12,-646.12 837.12,-650.08 837.12,-650.08 837.12,-658 837.12,-658 837.12,-661.95 833.17,-665.91 829.21,-665.91"/>
<text text-anchor="middle" x="796.5" y="-648.61" font-family="Arial" font-size="14.00" fill="#cfffac">src/array.js</text>
</g>
<!-- src/dom.js&#45;&gt;src/array.js -->
<g id="edge52" class="edge">
<title>src/dom.js&#45;&gt;src/array.js</title>
<path fill="none" stroke="#757575" d="M693.21,-641.68C708.95,-643.58 727.39,-645.81 744.25,-647.85"/>
<polygon fill="#757575" stroke="#757575" points="743.76,-651.31 754.11,-649.04 744.6,-644.36 743.76,-651.31"/>
</g>
<!-- src/attribute.js -->
<g id="node23" class="node">
<title>src/attribute.js</title>
<path fill="none" stroke="#c6c5fe" d="M838.58,-707.91C838.58,-707.91 754.42,-707.91 754.42,-707.91 750.46,-707.91 746.5,-703.95 746.5,-700 746.5,-700 746.5,-692.08 746.5,-692.08 746.5,-688.12 750.46,-684.16 754.42,-684.16 754.42,-684.16 838.58,-684.16 838.58,-684.16 842.54,-684.16 846.5,-688.12 846.5,-692.08 846.5,-692.08 846.5,-700 846.5,-700 846.5,-703.95 842.54,-707.91 838.58,-707.91"/>
<text text-anchor="middle" x="796.5" y="-690.61" font-family="Arial" font-size="14.00" fill="#c6c5fe">src/attribute.js</text>
</g>
<!-- src/dom.js&#45;&gt;src/attribute.js -->
<g id="edge53" class="edge">
<title>src/dom.js&#45;&gt;src/attribute.js</title>
<path fill="none" stroke="#757575" d="M684.26,-649.41C704.99,-658.1 732.98,-669.83 755.69,-679.35"/>
<polygon fill="#757575" stroke="#757575" points="754.06,-682.46 764.64,-683.1 756.77,-676.01 754.06,-682.46"/>
</g>
<!-- src/dom.js&#45;&gt;src/constants.js -->
<g id="edge54" class="edge">
<title>src/dom.js&#45;&gt;src/constants.js</title>
<path fill="none" stroke="#757575" d="M658.51,-649.41C668.17,-679.15 696.66,-755.31 746.5,-797.04 822.17,-860.38 935.06,-890.27 1005.65,-903.51"/>
<polygon fill="#757575" stroke="#757575" points="1004.65,-906.89 1015.12,-905.23 1005.9,-900 1004.65,-906.89"/>
</g>
<!-- src/events.js&#45;&gt;src/function.js -->
<g id="edge58" class="edge">
<title>src/events.js&#45;&gt;src/function.js</title>
<path fill="none" stroke="#757575" d="M829.44,-763.77C835.78,-760.14 841.9,-755.6 846.5,-750.04 878.97,-710.79 913.57,-558.79 925.98,-500.23"/>
<polygon fill="#757575" stroke="#757575" points="929.35,-501.21 927.97,-490.7 922.5,-499.77 929.35,-501.21"/>
</g>
<!-- src/function.js&#45;&gt;src/string.js -->
<g id="edge60" class="edge">
<title>src/function.js&#45;&gt;src/string.js</title>
<path fill="none" stroke="#757575" d="M937.82,-464.79C958.19,-415.53 1034.35,-231.42 1061.12,-166.71"/>
<polygon fill="#757575" stroke="#757575" points="1064.22,-168.37 1064.81,-157.79 1057.75,-165.7 1064.22,-168.37"/>
</g>
<!-- src/function.js&#45;&gt;src/constants.js -->
<g id="edge59" class="edge">
<title>src/function.js&#45;&gt;src/constants.js</title>
<path fill="none" stroke="#757575" d="M936.58,-489.15C955.38,-548.68 1038.08,-810.44 1063.22,-890.01"/>
<polygon fill="#757575" stroke="#757575" points="1059.82,-890.85 1066.17,-899.33 1066.49,-888.74 1059.82,-890.85"/>
</g>
<!-- src/json.js&#45;&gt;src/function.js -->
<g id="edge61" class="edge">
<title>src/json.js&#45;&gt;src/function.js</title>
<path fill="none" stroke="#757575" d="M486.61,-575.98C557.59,-567.7 716.76,-546.49 846.5,-510.04 862.05,-505.67 878.69,-499.49 893.05,-493.66"/>
<polygon fill="#757575" stroke="#757575" points="894.24,-496.95 902.13,-489.88 891.55,-490.49 894.24,-496.95"/>
</g>
<!-- src/side&#45;effect.js&#45;&gt;src/function.js -->
<g id="edge62" class="edge">
<title>src/side&#45;effect.js&#45;&gt;src/function.js</title>
<path fill="none" stroke="#757575" d="M710.6,-189.64C752.92,-196.67 809.85,-212.48 846.5,-248.04 905.56,-305.33 923.5,-407.52 928.72,-453.49"/>
<polygon fill="#757575" stroke="#757575" points="925.23,-453.78 929.72,-463.37 932.19,-453.07 925.23,-453.78"/>
</g>
<!-- src/transform.js&#45;&gt;src/dom.js -->
<g id="edge63" class="edge">
<title>src/transform.js&#45;&gt;src/dom.js</title>
<path fill="none" stroke="#757575" d="M476.82,-474.31C500.55,-485.7 535.04,-504.15 561,-526.04 592.78,-552.83 621.98,-591.63 638.55,-615.55"/>
<polygon fill="#757575" stroke="#757575" points="635.47,-617.26 643.99,-623.56 641.26,-613.32 635.47,-617.26"/>
</g>
<!-- src/transform.js&#45;&gt;src/function.js -->
<g id="edge64" class="edge">
<title>src/transform.js&#45;&gt;src/function.js</title>
<path fill="none" stroke="#757575" d="M503.19,-463.71C593.87,-466.54 776.42,-472.23 870.96,-475.17"/>
<polygon fill="#757575" stroke="#757575" points="870.7,-478.67 880.8,-475.48 870.92,-471.67 870.7,-478.67"/>
</g>
<!-- src/attribute.js&#45;&gt;src/function.js -->
<g id="edge21" class="edge">
<title>src/attribute.js&#45;&gt;src/function.js</title>
<path fill="none" stroke="#757575" d="M834.78,-683.78C839.06,-681.33 843.1,-678.45 846.5,-675.04 896.47,-624.94 918.62,-540.59 926.76,-500.09"/>
<polygon fill="#757575" stroke="#757575" points="930.15,-500.98 928.57,-490.51 923.27,-499.68 930.15,-500.98"/>
</g>
<!-- src/style.js -->
<g id="node24" class="node">
<title>src/style.js</title>
<path fill="none" stroke="#cfffac" d="M963.33,-707.91C963.33,-707.91 900.17,-707.91 900.17,-707.91 896.21,-707.91 892.25,-703.95 892.25,-700 892.25,-700 892.25,-692.08 892.25,-692.08 892.25,-688.12 896.21,-684.16 900.17,-684.16 900.17,-684.16 963.33,-684.16 963.33,-684.16 967.29,-684.16 971.25,-688.12 971.25,-692.08 971.25,-692.08 971.25,-700 971.25,-700 971.25,-703.95 967.29,-707.91 963.33,-707.91"/>
<text text-anchor="middle" x="931.75" y="-690.61" font-family="Arial" font-size="14.00" fill="#cfffac">src/style.js</text>
</g>
<!-- src/attribute.js&#45;&gt;src/style.js -->
<g id="edge22" class="edge">
<title>src/attribute.js&#45;&gt;src/style.js</title>
<path fill="none" stroke="#757575" d="M846.74,-696.04C857.85,-696.04 869.66,-696.04 880.81,-696.04"/>
<polygon fill="#757575" stroke="#757575" points="880.61,-699.54 890.61,-696.04 880.61,-692.54 880.61,-699.54"/>
</g>
</g>
</svg>
