<svg width="300" height="52" viewBox="0 0 300 52" fill="none" xmlns="http://www.w3.org/2000/svg">
<path d="M0 52C2.01883 44.512 3.90307 36.9547 6.59485 25.9307C9.35391 14.56 11.1709 6.79467 12.584 0H37.6848C37.5502 4.50667 37.4829 10.2613 37.6175 16.7093C37.4829 19.0667 37.2811 22.3253 37.0792 25.4453H37.3484C38.6942 22.256 40.0401 19.0667 41.1168 16.7093C44.2124 10.4693 47.1733 4.43733 49.1249 0H73.3508C71.6012 6.79467 69.6496 14.56 66.8906 25.9307C64.1988 36.9547 62.3819 44.512 60.8341 52H41.7898C43.6067 45.76 44.8853 41.0453 46.635 34.32C47.3752 31.2693 48.4519 27.664 49.5286 24.128L49.1249 24.0587C47.3079 27.9413 45.4237 31.6853 44.0105 34.2507L34.1182 52H25.2354L23.6876 33.904C23.553 31.3387 23.553 27.5947 23.4857 23.8507L23.1493 23.92C22.4763 27.456 21.938 30.784 21.1304 34.32C19.5154 41.1147 18.4386 45.968 17.1601 52H0Z" fill="white"/>
<path d="M119.332 52H96.9228C97.3938 49.9893 97.9322 46.6613 98.5378 42.64C96.9228 42.64 95.375 42.64 94.0964 42.64C93.8945 42.64 93.7599 42.64 93.6253 42.64C93.4235 42.64 93.2889 42.64 93.1543 42.64C91.8084 42.64 90.1933 42.64 88.4437 42.64C87.0978 46.592 86.0211 49.92 85.4827 52H63.7467C70.0723 38.896 83.8677 6.79467 86.4921 0H121.149C120.745 6.93333 119.13 38.8267 119.332 52ZM92.6832 30.8533C94.0291 30.8533 95.375 30.8533 96.4517 30.8533C97.5284 30.8533 98.807 30.8533 100.153 30.8533C100.691 26.1387 101.162 21.216 101.499 16.848C101.499 14.0053 101.835 10.6773 102.104 7.97333H101.701C100.691 10.608 99.3454 13.936 98.0668 16.9173C96.2498 21.2853 94.4329 26.1387 92.6832 30.8533Z" fill="white"/>
<path d="M149.291 52H121.835C123.786 44.6507 125.603 37.0933 128.295 26.0693C130.987 15.0453 132.871 7.072 134.419 0H159.722C176.545 0 183.746 6.24 178.497 27.9413C173.786 47.2853 166.182 52 149.291 52ZM146.128 36.4693C147.205 36.5387 148.349 36.5387 149.56 36.5387C153.934 36.5387 156.155 35.0133 158.308 26.208C160.866 15.6 159.183 13.728 155.213 13.728C154.002 13.728 152.858 13.728 151.646 13.7973C150.637 17.68 149.627 21.7013 148.618 25.792C147.541 30.2293 146.734 33.6267 146.128 36.4693Z" fill="white"/>
<path d="M210.555 52H176.907C177.984 47.9093 180.81 37.0933 183.435 26C186.261 14.56 188.549 4.992 189.491 0H211.429C210.42 3.744 207.594 14.8373 204.834 26.0693C204.296 28.288 203.758 30.5067 203.287 32.656C206.853 32.5867 211.227 32.5173 215.332 32.448C214.525 35.6373 213.65 38.9653 212.91 42.1547C212.102 45.4827 211.295 48.7413 210.555 52Z" fill="white"/>
<path d="M235.439 52H213.972C215.991 44.5813 217.808 37.024 220.432 26C223.124 14.976 225.008 7.41867 226.556 0H248.023C246.071 7.34933 244.254 14.9067 241.63 25.9307C238.938 36.9547 237.121 44.512 235.439 52Z" fill="white"/>
<path d="M275.164 52H240.978C243.065 44.5813 244.949 37.024 247.573 26C250.265 14.976 252.082 7.28 253.562 0H285.864C296.362 0 301.812 5.54667 299.457 14.8373C298.179 20.1067 296.025 22.6027 290.978 24.2667C289.632 24.752 288.017 25.0293 286.2 25.2373L286.066 25.584C287.344 25.7227 288.421 25.9307 289.228 26.208C294.679 27.9413 295.756 32.5867 294.208 39.0347C291.92 48.6027 286.806 52 275.164 52ZM271.328 29.744C269.848 29.744 268.098 29.8133 266.214 29.8827C265.339 33.488 264.531 37.024 263.858 40.0747C265.743 40.2133 267.358 40.2133 268.906 40.2133C272.068 40.2133 273.818 39.104 274.626 35.6373C275.702 31.2 274.424 29.744 271.328 29.744ZM268.3 21.216C269.915 21.2853 271.463 21.2853 272.809 21.2853C273.078 21.2853 273.28 21.2853 273.414 21.2853C276.443 21.216 278.192 19.8987 279.067 16.2933C280.076 12.1333 278.663 10.7467 275.971 10.7467C274.356 10.7467 272.674 10.7467 270.857 10.816C270.117 13.728 269.242 17.4027 268.3 21.216Z" fill="white"/>
</svg>
