<svg width="400" height="70" viewBox="0 0 400 70" fill="none" xmlns="http://www.w3.org/2000/svg">
<path d="M0 70C2.69177 59.92 5.2041 49.7467 8.79313 34.9067C12.4719 19.6 14.8945 9.14667 16.7787 0H50.2464C50.067 6.06667 49.9773 13.8133 50.1567 22.4933C49.9773 25.6667 49.7081 30.0533 49.4389 34.2533H49.7978C51.5923 29.96 53.3868 25.6667 54.8225 22.4933C58.9498 14.0933 62.8978 5.97333 65.4998 0H97.8011C95.4682 9.14667 92.8662 19.6 89.1874 34.9067C85.5984 49.7467 83.1758 59.92 81.1121 70H55.7197C58.1423 61.6 59.8471 55.2533 62.18 46.2C63.167 42.0933 64.6026 37.24 66.0382 32.48L65.4998 32.3867C63.0772 37.6133 60.5649 42.6533 58.6807 46.1067L45.491 70H33.6472L31.5835 45.64C31.404 42.1867 31.404 37.1467 31.3143 32.1067L30.8657 32.2C29.9684 36.96 29.2506 41.44 28.1739 46.2C26.0205 55.3467 24.5849 61.88 22.8801 70H0Z" fill="white"/>
<path d="M159.109 70H129.23C129.858 67.2933 130.576 62.8133 131.384 57.4C129.23 57.4 127.167 57.4 125.462 57.4C125.193 57.4 125.013 57.4 124.834 57.4C124.565 57.4 124.385 57.4 124.206 57.4C122.411 57.4 120.258 57.4 117.925 57.4C116.13 62.72 114.695 67.2 113.977 70H84.9955C93.4298 52.36 111.824 9.14667 115.323 0H161.532C160.993 9.33334 158.84 52.2667 159.109 70ZM123.578 41.5333C125.372 41.5333 127.167 41.5333 128.602 41.5333C130.038 41.5333 131.743 41.5333 133.537 41.5333C134.255 35.1867 134.883 28.56 135.332 22.68C135.332 18.8533 135.78 14.3733 136.139 10.7333H135.601C134.255 14.28 132.46 18.76 130.756 22.7733C128.333 28.6533 125.911 35.1867 123.578 41.5333Z" fill="white"/>
<path d="M199.055 70H162.446C165.048 60.1067 167.471 49.9333 171.06 35.0933C174.649 20.2533 177.161 9.52 179.225 0H212.962C235.393 0 244.994 8.4 237.996 37.6133C231.715 63.6533 221.576 70 199.055 70ZM194.837 49.0933C196.273 49.1867 197.798 49.1867 199.413 49.1867C205.246 49.1867 208.207 47.1333 211.078 35.28C214.487 21 212.244 18.48 206.95 18.48C205.335 18.48 203.81 18.48 202.195 18.5733C200.849 23.8 199.503 29.2133 198.157 34.72C196.722 40.6933 195.645 45.2667 194.837 49.0933Z" fill="white"/>
<path d="M280.739 70H235.876C237.312 64.4933 241.081 49.9333 244.58 35C248.348 19.6 251.399 6.72 252.655 0H281.906C280.56 5.04 276.791 19.9733 273.113 35.0933C272.395 38.08 271.677 41.0667 271.049 43.96C275.804 43.8667 281.637 43.7733 287.11 43.68C286.033 47.9733 284.867 52.4533 283.88 56.7467C282.803 61.2267 281.726 65.6133 280.739 70Z" fill="white"/>
<path d="M313.918 70H285.296C287.987 60.0133 290.41 49.84 293.909 35C297.498 20.16 300.011 9.98667 302.074 0H330.697C328.095 9.89333 325.672 20.0667 322.173 34.9067C318.584 49.7467 316.161 59.92 313.918 70Z" fill="white"/>
<path d="M366.885 70H321.305C324.086 60.0133 326.598 49.84 330.098 35C333.687 20.16 336.109 9.8 338.083 0H381.152C395.149 0 402.417 7.46667 399.276 19.9733C397.571 27.0667 394.7 30.4267 387.971 32.6667C386.176 33.32 384.023 33.6933 381.6 33.9733L381.421 34.44C383.126 34.6267 384.561 34.9067 385.638 35.28C392.906 37.6133 394.341 43.8667 392.278 52.5467C389.227 65.4267 382.408 70 366.885 70ZM361.771 40.04C359.797 40.04 357.464 40.1333 354.952 40.2267C353.785 45.08 352.709 49.84 351.811 53.9467C354.324 54.1333 356.477 54.1333 358.541 54.1333C362.758 54.1333 365.091 52.64 366.167 47.9733C367.603 42 365.898 40.04 361.771 40.04ZM357.733 28.56C359.887 28.6533 361.95 28.6533 363.745 28.6533C364.104 28.6533 364.373 28.6533 364.552 28.6533C368.59 28.56 370.923 26.7867 372.089 21.9333C373.435 16.3333 371.551 14.4667 367.962 14.4667C365.808 14.4667 363.565 14.4667 361.143 14.56C360.156 18.48 358.989 23.4267 357.733 28.56Z" fill="white"/>
</svg>
