<?xml version="1.0" encoding="UTF-8" standalone="no"?>
<!DOCTYPE svg PUBLIC "-//W3C//DTD SVG 1.1//EN"
 "http://www.w3.org/Graphics/SVG/1.1/DTD/svg11.dtd">
<!-- Generated by graphviz version 12.1.2 (20240928.0832)
 -->
<!-- Title: G Pages: 1 -->
<svg width="858pt" height="575pt"
 viewBox="0.00 0.00 857.70 575.00" xmlns="http://www.w3.org/2000/svg" xmlns:xlink="http://www.w3.org/1999/xlink">
<g id="graph0" class="graph" transform="scale(1 1) rotate(0) translate(21.6 553.4)">
<title>G</title>
<polygon fill="#111111" stroke="none" points="-21.6,21.6 -21.6,-553.4 836.1,-553.4 836.1,21.6 -21.6,21.6"/>
<!-- example.js -->
<g id="node1" class="node">
<title>example.js</title>
<path fill="none" stroke="#c6c5fe" d="M73.33,-335.8C73.33,-335.8 7.92,-335.8 7.92,-335.8 3.96,-335.8 0,-331.85 0,-327.89 0,-327.89 0,-319.97 0,-319.97 0,-316.01 3.96,-312.05 7.92,-312.05 7.92,-312.05 73.33,-312.05 73.33,-312.05 77.29,-312.05 81.25,-316.01 81.25,-319.97 81.25,-319.97 81.25,-327.89 81.25,-327.89 81.25,-331.85 77.29,-335.8 73.33,-335.8"/>
<text text-anchor="middle" x="40.62" y="-318.5" font-family="Arial" font-size="14.00" fill="#c6c5fe">example.js</text>
</g>
<!-- example.scss -->
<g id="node2" class="node">
<title>example.scss</title>
<path fill="none" stroke="#cfffac" d="M235.58,-531.8C235.58,-531.8 152.92,-531.8 152.92,-531.8 148.96,-531.8 145,-527.85 145,-523.89 145,-523.89 145,-515.97 145,-515.97 145,-512.01 148.96,-508.05 152.92,-508.05 152.92,-508.05 235.58,-508.05 235.58,-508.05 239.54,-508.05 243.5,-512.01 243.5,-515.97 243.5,-515.97 243.5,-523.89 243.5,-523.89 243.5,-527.85 239.54,-531.8 235.58,-531.8"/>
<text text-anchor="middle" x="194.25" y="-514.5" font-family="Arial" font-size="14.00" fill="#cfffac">example.scss</text>
</g>
<!-- example.js&#45;&gt;example.scss -->
<g id="edge1" class="edge">
<title>example.js&#45;&gt;example.scss</title>
<path fill="none" stroke="#757575" d="M43.62,-336.16C49.29,-367.11 68.39,-449.23 117.25,-493.93 122.19,-498.45 127.96,-502.19 134.06,-505.29"/>
<polygon fill="#757575" stroke="#757575" points="132.62,-508.48 143.18,-509.29 135.44,-502.07 132.62,-508.48"/>
</g>
<!-- src/decorators/literal.js -->
<g id="node3" class="node">
<title>src/decorators/literal.js</title>
<path fill="none" stroke="#c6c5fe" d="M261.83,-375.8C261.83,-375.8 126.67,-375.8 126.67,-375.8 122.71,-375.8 118.75,-371.85 118.75,-367.89 118.75,-367.89 118.75,-359.97 118.75,-359.97 118.75,-356.01 122.71,-352.05 126.67,-352.05 126.67,-352.05 261.83,-352.05 261.83,-352.05 265.79,-352.05 269.75,-356.01 269.75,-359.97 269.75,-359.97 269.75,-367.89 269.75,-367.89 269.75,-371.85 265.79,-375.8 261.83,-375.8"/>
<text text-anchor="middle" x="194.25" y="-358.5" font-family="Arial" font-size="14.00" fill="#c6c5fe">src/decorators/literal.js</text>
</g>
<!-- example.js&#45;&gt;src/decorators/literal.js -->
<g id="edge2" class="edge">
<title>example.js&#45;&gt;src/decorators/literal.js</title>
<path fill="none" stroke="#757575" d="M81.46,-334.44C97.96,-338.79 117.41,-343.92 135.42,-348.67"/>
<polygon fill="#757575" stroke="#757575" points="134.39,-352.02 144.95,-351.19 136.17,-345.25 134.39,-352.02"/>
</g>
<!-- src/decorators/styled.js -->
<g id="node4" class="node">
<title>src/decorators/styled.js</title>
<path fill="none" stroke="#c6c5fe" d="M263.33,-134.8C263.33,-134.8 125.17,-134.8 125.17,-134.8 121.21,-134.8 117.25,-130.85 117.25,-126.89 117.25,-126.89 117.25,-118.97 117.25,-118.97 117.25,-115.01 121.21,-111.05 125.17,-111.05 125.17,-111.05 263.33,-111.05 263.33,-111.05 267.29,-111.05 271.25,-115.01 271.25,-118.97 271.25,-118.97 271.25,-126.89 271.25,-126.89 271.25,-130.85 267.29,-134.8 263.33,-134.8"/>
<text text-anchor="middle" x="194.25" y="-117.5" font-family="Arial" font-size="14.00" fill="#c6c5fe">src/decorators/styled.js</text>
</g>
<!-- example.js&#45;&gt;src/decorators/styled.js -->
<g id="edge3" class="edge">
<title>example.js&#45;&gt;src/decorators/styled.js</title>
<path fill="none" stroke="#757575" d="M50.88,-311.66C75.94,-278.44 145.35,-186.43 177.06,-144.39"/>
<polygon fill="#757575" stroke="#757575" points="179.78,-146.59 183.01,-136.5 174.19,-142.38 179.78,-146.59"/>
</g>
<!-- src/dom.js -->
<g id="node5" class="node">
<title>src/dom.js</title>
<path fill="none" stroke="#c6c5fe" d="M377.58,-254.8C377.58,-254.8 315.17,-254.8 315.17,-254.8 311.21,-254.8 307.25,-250.85 307.25,-246.89 307.25,-246.89 307.25,-238.97 307.25,-238.97 307.25,-235.01 311.21,-231.05 315.17,-231.05 315.17,-231.05 377.58,-231.05 377.58,-231.05 381.54,-231.05 385.5,-235.01 385.5,-238.97 385.5,-238.97 385.5,-246.89 385.5,-246.89 385.5,-250.85 381.54,-254.8 377.58,-254.8"/>
<text text-anchor="middle" x="346.38" y="-237.5" font-family="Arial" font-size="14.00" fill="#c6c5fe">src/dom.js</text>
</g>
<!-- example.js&#45;&gt;src/dom.js -->
<g id="edge4" class="edge">
<title>example.js&#45;&gt;src/dom.js</title>
<path fill="none" stroke="#757575" d="M52.25,-311.79C65.74,-297.31 90.5,-273.71 117.25,-262.93 175.33,-239.52 248.3,-237.35 295.85,-239.14"/>
<polygon fill="#757575" stroke="#757575" points="295.41,-242.62 305.56,-239.58 295.73,-235.63 295.41,-242.62"/>
</g>
<!-- src/side&#45;effect.js -->
<g id="node6" class="node">
<title>src/side&#45;effect.js</title>
<path fill="none" stroke="#c6c5fe" d="M527.08,-336.8C527.08,-336.8 429.42,-336.8 429.42,-336.8 425.46,-336.8 421.5,-332.85 421.5,-328.89 421.5,-328.89 421.5,-320.97 421.5,-320.97 421.5,-317.01 425.46,-313.05 429.42,-313.05 429.42,-313.05 527.08,-313.05 527.08,-313.05 531.04,-313.05 535,-317.01 535,-320.97 535,-320.97 535,-328.89 535,-328.89 535,-332.85 531.04,-336.8 527.08,-336.8"/>
<text text-anchor="middle" x="478.25" y="-319.5" font-family="Arial" font-size="14.00" fill="#c6c5fe">src/side&#45;effect.js</text>
</g>
<!-- example.js&#45;&gt;src/side&#45;effect.js -->
<g id="edge5" class="edge">
<title>example.js&#45;&gt;src/side&#45;effect.js</title>
<path fill="none" stroke="#757575" d="M81.44,-324.02C156.07,-324.19 317.73,-324.56 409.69,-324.77"/>
<polygon fill="#757575" stroke="#757575" points="409.57,-328.27 419.58,-324.8 409.59,-321.27 409.57,-328.27"/>
</g>
<!-- src/spider.js -->
<g id="node7" class="node">
<title>src/spider.js</title>
<path fill="none" stroke="#c6c5fe" d="M229.96,-295.8C229.96,-295.8 158.54,-295.8 158.54,-295.8 154.58,-295.8 150.62,-291.85 150.62,-287.89 150.62,-287.89 150.62,-279.97 150.62,-279.97 150.62,-276.01 154.58,-272.05 158.54,-272.05 158.54,-272.05 229.96,-272.05 229.96,-272.05 233.92,-272.05 237.88,-276.01 237.88,-279.97 237.88,-279.97 237.88,-287.89 237.88,-287.89 237.88,-291.85 233.92,-295.8 229.96,-295.8"/>
<text text-anchor="middle" x="194.25" y="-278.5" font-family="Arial" font-size="14.00" fill="#c6c5fe">src/spider.js</text>
</g>
<!-- example.js&#45;&gt;src/spider.js -->
<g id="edge6" class="edge">
<title>example.js&#45;&gt;src/spider.js</title>
<path fill="none" stroke="#757575" d="M81.46,-313.42C99.14,-308.76 120.21,-303.2 139.27,-298.17"/>
<polygon fill="#757575" stroke="#757575" points="139.98,-301.6 148.76,-295.67 138.2,-294.83 139.98,-301.6"/>
</g>
<!-- src/string.js -->
<g id="node8" class="node">
<title>src/string.js</title>
<path fill="none" stroke="#cfffac" d="M794.21,-334.8C794.21,-334.8 725.79,-334.8 725.79,-334.8 721.83,-334.8 717.88,-330.85 717.88,-326.89 717.88,-326.89 717.88,-318.97 717.88,-318.97 717.88,-315.01 721.83,-311.05 725.79,-311.05 725.79,-311.05 794.21,-311.05 794.21,-311.05 798.17,-311.05 802.12,-315.01 802.12,-318.97 802.12,-318.97 802.12,-326.89 802.12,-326.89 802.12,-330.85 798.17,-334.8 794.21,-334.8"/>
<text text-anchor="middle" x="760" y="-317.5" font-family="Arial" font-size="14.00" fill="#cfffac">src/string.js</text>
</g>
<!-- example.js&#45;&gt;src/string.js -->
<g id="edge7" class="edge">
<title>example.js&#45;&gt;src/string.js</title>
<path fill="none" stroke="#757575" d="M54.32,-336.17C93.86,-372.95 219.7,-479.93 345.38,-479.93 345.38,-479.93 345.38,-479.93 479.25,-479.93 589.71,-479.93 696.93,-385.69 739.63,-343.24"/>
<polygon fill="#757575" stroke="#757575" points="741.91,-345.9 746.45,-336.33 736.93,-340.98 741.91,-345.9"/>
</g>
<!-- src/decorators/literal.js&#45;&gt;src/dom.js -->
<g id="edge11" class="edge">
<title>src/decorators/literal.js&#45;&gt;src/dom.js</title>
<path fill="none" stroke="#757575" d="M211.4,-351.67C226.87,-339.85 250.83,-321.39 271.25,-304.93 288.67,-290.89 308.05,-274.66 322.62,-262.33"/>
<polygon fill="#757575" stroke="#757575" points="324.5,-265.32 329.86,-256.18 319.97,-259.98 324.5,-265.32"/>
</g>
<!-- src/function.js -->
<g id="node11" class="node">
<title>src/function.js</title>
<path fill="none" stroke="#c6c5fe" d="M661.58,-294.8C661.58,-294.8 578.92,-294.8 578.92,-294.8 574.96,-294.8 571,-290.85 571,-286.89 571,-286.89 571,-278.97 571,-278.97 571,-275.01 574.96,-271.05 578.92,-271.05 578.92,-271.05 661.58,-271.05 661.58,-271.05 665.54,-271.05 669.5,-275.01 669.5,-278.97 669.5,-278.97 669.5,-286.89 669.5,-286.89 669.5,-290.85 665.54,-294.8 661.58,-294.8"/>
<text text-anchor="middle" x="620.25" y="-277.5" font-family="Arial" font-size="14.00" fill="#c6c5fe">src/function.js</text>
</g>
<!-- src/decorators/literal.js&#45;&gt;src/function.js -->
<g id="edge12" class="edge">
<title>src/decorators/literal.js&#45;&gt;src/function.js</title>
<path fill="none" stroke="#757575" d="M269.94,-372.15C340.47,-377.13 448.09,-377.41 535,-345.93 560.07,-336.85 583.94,-317.64 599.83,-302.81"/>
<polygon fill="#757575" stroke="#757575" points="601.95,-305.63 606.7,-296.16 597.08,-300.6 601.95,-305.63"/>
</g>
<!-- src/constants.js -->
<g id="node13" class="node">
<title>src/constants.js</title>
<path fill="none" stroke="#cfffac" d="M806.58,-253.8C806.58,-253.8 713.42,-253.8 713.42,-253.8 709.46,-253.8 705.5,-249.85 705.5,-245.89 705.5,-245.89 705.5,-237.97 705.5,-237.97 705.5,-234.01 709.46,-230.05 713.42,-230.05 713.42,-230.05 806.58,-230.05 806.58,-230.05 810.54,-230.05 814.5,-234.01 814.5,-237.97 814.5,-237.97 814.5,-245.89 814.5,-245.89 814.5,-249.85 810.54,-253.8 806.58,-253.8"/>
<text text-anchor="middle" x="760" y="-236.5" font-family="Arial" font-size="14.00" fill="#cfffac">src/constants.js</text>
</g>
<!-- src/decorators/literal.js&#45;&gt;src/constants.js -->
<g id="edge10" class="edge">
<title>src/decorators/literal.js&#45;&gt;src/constants.js</title>
<path fill="none" stroke="#757575" d="M212.03,-376.14C233.05,-390.61 270.77,-413.91 307.25,-422.93 405.79,-447.3 440.46,-442.88 535,-405.93 620.61,-372.47 702.98,-297.85 739.43,-261.96"/>
<polygon fill="#757575" stroke="#757575" points="741.61,-264.73 746.21,-255.19 736.66,-259.77 741.61,-264.73"/>
</g>
<!-- src/json.js -->
<g id="node14" class="node">
<title>src/json.js</title>
<path fill="none" stroke="#c6c5fe" d="M376.46,-413.8C376.46,-413.8 316.29,-413.8 316.29,-413.8 312.33,-413.8 308.38,-409.85 308.38,-405.89 308.38,-405.89 308.38,-397.97 308.38,-397.97 308.38,-394.01 312.33,-390.05 316.29,-390.05 316.29,-390.05 376.46,-390.05 376.46,-390.05 380.42,-390.05 384.38,-394.01 384.38,-397.97 384.38,-397.97 384.38,-405.89 384.38,-405.89 384.38,-409.85 380.42,-413.8 376.46,-413.8"/>
<text text-anchor="middle" x="346.38" y="-396.5" font-family="Arial" font-size="14.00" fill="#c6c5fe">src/json.js</text>
</g>
<!-- src/decorators/literal.js&#45;&gt;src/json.js -->
<g id="edge13" class="edge">
<title>src/decorators/literal.js&#45;&gt;src/json.js</title>
<path fill="none" stroke="#757575" d="M243.99,-376.27C261.13,-380.6 280.36,-385.47 297.43,-389.79"/>
<polygon fill="#757575" stroke="#757575" points="296.27,-393.11 306.83,-392.17 297.99,-386.32 296.27,-393.11"/>
</g>
<!-- src/decorators/styled.js&#45;&gt;src/dom.js -->
<g id="edge15" class="edge">
<title>src/decorators/styled.js&#45;&gt;src/dom.js</title>
<path fill="none" stroke="#757575" d="M210.47,-135.1C236.55,-155.94 289.96,-198.64 321.19,-223.6"/>
<polygon fill="#757575" stroke="#757575" points="318.93,-226.28 328.93,-229.79 323.31,-220.81 318.93,-226.28"/>
</g>
<!-- src/decorators/styled.js&#45;&gt;src/function.js -->
<g id="edge16" class="edge">
<title>src/decorators/styled.js&#45;&gt;src/function.js</title>
<path fill="none" stroke="#757575" d="M213.52,-110.67C268.73,-75.29 436.13,19.59 535,-59.93 593.15,-106.7 538.49,-156.76 571,-223.93 577.85,-238.07 588.72,-251.79 598.42,-262.43"/>
<polygon fill="#757575" stroke="#757575" points="595.7,-264.66 605.13,-269.5 600.78,-259.83 595.7,-264.66"/>
</g>
<!-- src/decorators/styled.js&#45;&gt;src/constants.js -->
<g id="edge14" class="edge">
<title>src/decorators/styled.js&#45;&gt;src/constants.js</title>
<path fill="none" stroke="#757575" d="M205.47,-110.7C223.53,-90.1 263.37,-49.04 307.25,-31.93 401.6,4.86 441.04,12.85 535,-24.93 634.95,-65.11 714.84,-173.9 745.48,-220.39"/>
<polygon fill="#757575" stroke="#757575" points="742.38,-222.05 750.75,-228.54 748.26,-218.24 742.38,-222.05"/>
</g>
<!-- src/dom.js&#45;&gt;src/side&#45;effect.js -->
<g id="edge23" class="edge">
<title>src/dom.js&#45;&gt;src/side&#45;effect.js</title>
<path fill="none" stroke="#757575" d="M359.54,-255.11C373.49,-268.54 397.55,-290.08 421.5,-303.93 423.93,-305.33 426.47,-306.68 429.07,-307.96"/>
<polygon fill="#757575" stroke="#757575" points="427.35,-311.02 437.91,-311.94 430.23,-304.64 427.35,-311.02"/>
</g>
<!-- src/array.js -->
<g id="node9" class="node">
<title>src/array.js</title>
<path fill="none" stroke="#cfffac" d="M510.96,-134.8C510.96,-134.8 445.54,-134.8 445.54,-134.8 441.58,-134.8 437.62,-130.85 437.62,-126.89 437.62,-126.89 437.62,-118.97 437.62,-118.97 437.62,-115.01 441.58,-111.05 445.54,-111.05 445.54,-111.05 510.96,-111.05 510.96,-111.05 514.92,-111.05 518.88,-115.01 518.88,-118.97 518.88,-118.97 518.88,-126.89 518.88,-126.89 518.88,-130.85 514.92,-134.8 510.96,-134.8"/>
<text text-anchor="middle" x="478.25" y="-117.5" font-family="Arial" font-size="14.00" fill="#cfffac">src/array.js</text>
</g>
<!-- src/dom.js&#45;&gt;src/array.js -->
<g id="edge17" class="edge">
<title>src/dom.js&#45;&gt;src/array.js</title>
<path fill="none" stroke="#757575" d="M354.36,-230.76C366.07,-211.26 391.36,-172.8 421.5,-148.93 425.42,-145.82 429.77,-142.99 434.27,-140.42"/>
<polygon fill="#757575" stroke="#757575" points="435.62,-143.66 442.88,-135.94 432.39,-137.45 435.62,-143.66"/>
</g>
<!-- src/attribute.js -->
<g id="node10" class="node">
<title>src/attribute.js</title>
<path fill="none" stroke="#c6c5fe" d="M520.33,-214.8C520.33,-214.8 436.17,-214.8 436.17,-214.8 432.21,-214.8 428.25,-210.85 428.25,-206.89 428.25,-206.89 428.25,-198.97 428.25,-198.97 428.25,-195.01 432.21,-191.05 436.17,-191.05 436.17,-191.05 520.33,-191.05 520.33,-191.05 524.29,-191.05 528.25,-195.01 528.25,-198.97 528.25,-198.97 528.25,-206.89 528.25,-206.89 528.25,-210.85 524.29,-214.8 520.33,-214.8"/>
<text text-anchor="middle" x="478.25" y="-197.5" font-family="Arial" font-size="14.00" fill="#c6c5fe">src/attribute.js</text>
</g>
<!-- src/dom.js&#45;&gt;src/attribute.js -->
<g id="edge18" class="edge">
<title>src/dom.js&#45;&gt;src/attribute.js</title>
<path fill="none" stroke="#757575" d="M385.99,-231.04C398.61,-227.15 412.82,-222.77 426.21,-218.65"/>
<polygon fill="#757575" stroke="#757575" points="427.23,-222 435.76,-215.71 425.17,-215.31 427.23,-222"/>
</g>
<!-- src/dom.js&#45;&gt;src/function.js -->
<g id="edge21" class="edge">
<title>src/dom.js&#45;&gt;src/function.js</title>
<path fill="none" stroke="#757575" d="M385.69,-245.19C423.76,-247.82 483.72,-252.99 535,-261.93 544.39,-263.57 554.29,-265.68 563.86,-267.93"/>
<polygon fill="#757575" stroke="#757575" points="562.89,-271.29 573.44,-270.25 564.54,-264.49 562.89,-271.29"/>
</g>
<!-- src/dom.js&#45;&gt;src/constants.js -->
<g id="edge19" class="edge">
<title>src/dom.js&#45;&gt;src/constants.js</title>
<path fill="none" stroke="#757575" d="M357.36,-230.66C370.33,-215.82 394.52,-191.6 421.5,-181.93 525.25,-144.73 564.05,-149.85 669.5,-181.93 695.32,-189.78 720.47,-207.84 737.5,-222.11"/>
<polygon fill="#757575" stroke="#757575" points="735.08,-224.65 744.93,-228.56 739.67,-219.37 735.08,-224.65"/>
</g>
<!-- src/events.js -->
<g id="node15" class="node">
<title>src/events.js</title>
<path fill="none" stroke="#c6c5fe" d="M515.83,-294.8C515.83,-294.8 440.67,-294.8 440.67,-294.8 436.71,-294.8 432.75,-290.85 432.75,-286.89 432.75,-286.89 432.75,-278.97 432.75,-278.97 432.75,-275.01 436.71,-271.05 440.67,-271.05 440.67,-271.05 515.83,-271.05 515.83,-271.05 519.79,-271.05 523.75,-275.01 523.75,-278.97 523.75,-278.97 523.75,-286.89 523.75,-286.89 523.75,-290.85 519.79,-294.8 515.83,-294.8"/>
<text text-anchor="middle" x="478.25" y="-277.5" font-family="Arial" font-size="14.00" fill="#c6c5fe">src/events.js</text>
</g>
<!-- src/dom.js&#45;&gt;src/events.js -->
<g id="edge20" class="edge">
<title>src/dom.js&#45;&gt;src/events.js</title>
<path fill="none" stroke="#757575" d="M385.99,-254.82C398.61,-258.71 412.82,-263.09 426.21,-267.21"/>
<polygon fill="#757575" stroke="#757575" points="425.17,-270.55 435.76,-270.15 427.23,-263.86 425.17,-270.55"/>
</g>
<!-- src/object.js -->
<g id="node16" class="node">
<title>src/object.js</title>
<path fill="none" stroke="#cfffac" d="M513.96,-92.8C513.96,-92.8 442.54,-92.8 442.54,-92.8 438.58,-92.8 434.62,-88.85 434.62,-84.89 434.62,-84.89 434.62,-76.97 434.62,-76.97 434.62,-73.01 438.58,-69.05 442.54,-69.05 442.54,-69.05 513.96,-69.05 513.96,-69.05 517.92,-69.05 521.88,-73.01 521.88,-76.97 521.88,-76.97 521.88,-84.89 521.88,-84.89 521.88,-88.85 517.92,-92.8 513.96,-92.8"/>
<text text-anchor="middle" x="478.25" y="-75.5" font-family="Arial" font-size="14.00" fill="#cfffac">src/object.js</text>
</g>
<!-- src/dom.js&#45;&gt;src/object.js -->
<g id="edge22" class="edge">
<title>src/dom.js&#45;&gt;src/object.js</title>
<path fill="none" stroke="#757575" d="M350.51,-230.9C358.12,-204.01 380.05,-138.55 421.5,-101.93 422.59,-100.97 423.73,-100.05 424.91,-99.17"/>
<polygon fill="#757575" stroke="#757575" points="426.62,-102.22 433.29,-93.98 422.94,-96.26 426.62,-102.22"/>
</g>
<!-- src/side&#45;effect.js&#45;&gt;src/function.js -->
<g id="edge28" class="edge">
<title>src/side&#45;effect.js&#45;&gt;src/function.js</title>
<path fill="none" stroke="#757575" d="M520.5,-312.56C535.17,-308.15 551.87,-303.14 567.32,-298.51"/>
<polygon fill="#757575" stroke="#757575" points="568.28,-301.88 576.85,-295.65 566.26,-295.17 568.28,-301.88"/>
</g>
<!-- src/spider.js&#45;&gt;src/dom.js -->
<g id="edge29" class="edge">
<title>src/spider.js&#45;&gt;src/dom.js</title>
<path fill="none" stroke="#757575" d="M238.27,-272.18C256.29,-267.26 277.35,-261.51 296,-256.41"/>
<polygon fill="#757575" stroke="#757575" points="296.77,-259.83 305.5,-253.82 294.93,-253.08 296.77,-259.83"/>
</g>
<!-- src/attribute.js&#45;&gt;src/function.js -->
<g id="edge8" class="edge">
<title>src/attribute.js&#45;&gt;src/function.js</title>
<path fill="none" stroke="#757575" d="M507.69,-215.3C516.56,-219.4 526.3,-224.14 535,-228.93 554.66,-239.75 575.93,-253.4 592.19,-264.27"/>
<polygon fill="#757575" stroke="#757575" points="590.1,-267.08 600.34,-269.78 594.01,-261.28 590.1,-267.08"/>
</g>
<!-- src/style.js -->
<g id="node12" class="node">
<title>src/style.js</title>
<path fill="none" stroke="#cfffac" d="M651.83,-214.8C651.83,-214.8 588.67,-214.8 588.67,-214.8 584.71,-214.8 580.75,-210.85 580.75,-206.89 580.75,-206.89 580.75,-198.97 580.75,-198.97 580.75,-195.01 584.71,-191.05 588.67,-191.05 588.67,-191.05 651.83,-191.05 651.83,-191.05 655.79,-191.05 659.75,-195.01 659.75,-198.97 659.75,-198.97 659.75,-206.89 659.75,-206.89 659.75,-210.85 655.79,-214.8 651.83,-214.8"/>
<text text-anchor="middle" x="620.25" y="-197.5" font-family="Arial" font-size="14.00" fill="#cfffac">src/style.js</text>
</g>
<!-- src/attribute.js&#45;&gt;src/style.js -->
<g id="edge9" class="edge">
<title>src/attribute.js&#45;&gt;src/style.js</title>
<path fill="none" stroke="#757575" d="M528.61,-202.93C541.76,-202.93 555.98,-202.93 569.17,-202.93"/>
<polygon fill="#757575" stroke="#757575" points="568.93,-206.43 578.93,-202.93 568.93,-199.43 568.93,-206.43"/>
</g>
<!-- src/function.js&#45;&gt;src/string.js -->
<g id="edge26" class="edge">
<title>src/function.js&#45;&gt;src/string.js</title>
<path fill="none" stroke="#757575" d="M663.7,-295.26C677.18,-299.17 692.24,-303.54 706.34,-307.64"/>
<polygon fill="#757575" stroke="#757575" points="705.36,-311 715.94,-310.43 707.32,-304.28 705.36,-311"/>
</g>
<!-- src/function.js&#45;&gt;src/constants.js -->
<g id="edge25" class="edge">
<title>src/function.js&#45;&gt;src/constants.js</title>
<path fill="none" stroke="#757575" d="M662.58,-270.63C676.47,-266.49 692.16,-261.82 706.78,-257.47"/>
<polygon fill="#757575" stroke="#757575" points="707.66,-260.86 716.25,-254.65 705.67,-254.15 707.66,-260.86"/>
</g>
<!-- src/json.js&#45;&gt;src/function.js -->
<g id="edge27" class="edge">
<title>src/json.js&#45;&gt;src/function.js</title>
<path fill="none" stroke="#757575" d="M384.58,-404.91C424.19,-406.43 487.56,-404 535,-378.93 566.99,-362.02 592.42,-327.67 606.67,-304.98"/>
<polygon fill="#757575" stroke="#757575" points="609.62,-306.86 611.79,-296.49 603.63,-303.24 609.62,-306.86"/>
</g>
<!-- src/events.js&#45;&gt;src/function.js -->
<g id="edge24" class="edge">
<title>src/events.js&#45;&gt;src/function.js</title>
<path fill="none" stroke="#757575" d="M523.93,-282.93C535.21,-282.93 547.5,-282.93 559.4,-282.93"/>
<polygon fill="#757575" stroke="#757575" points="559.12,-286.43 569.12,-282.93 559.12,-279.43 559.12,-286.43"/>
</g>
</g>
</svg>
