<?xml version="1.0" encoding="UTF-8" standalone="no"?>
<!DOCTYPE svg PUBLIC "-//W3C//DTD SVG 1.1//EN" "http://www.w3.org/Graphics/SVG/1.1/DTD/svg11.dtd">
<svg width="100%" height="100%" viewBox="0 0 45 47" version="1.1" xmlns="http://www.w3.org/2000/svg" xmlns:xlink="http://www.w3.org/1999/xlink" xml:space="preserve" xmlns:serif="http://www.serif.com/" style="fill-rule:evenodd;clip-rule:evenodd;stroke-linecap:round;stroke-linejoin:round;stroke-miterlimit:1.5;">
    <path d="M42.02,38.161C42.33,38.416 44.645,40.668 44.645,40.668C44.645,40.668 42.246,39.353 41.283,38.861C41.123,38.779 41.03,38.7 40.989,38.627C40.945,38.66 40.88,38.673 40.767,38.652C40.329,38.572 39.888,38.147 39.169,37.626C38.449,37.105 36.072,35.473 35.616,34.616C35.16,33.758 37.042,34.219 37.042,34.219C39.591,36.936 41.74,37.587 42.059,37.913C42.238,38.095 42.189,38.141 42.02,38.161ZM14.339,34.3C14.339,34.3 14.339,34.3 14.338,34.3C14.338,34.3 14.339,34.3 14.339,34.3ZM10.861,14.467C10.845,14.481 10.837,14.488 10.837,14.488C10.796,14.403 10.813,14.4 10.861,14.467ZM10.058,23.478C10.231,23.413 10.436,23.398 10.436,23.398C10.774,23.448 11.425,23.503 11.925,23.535C12.116,23.321 12.783,23.224 14.722,23.655C16.894,24.138 17.992,24.07 18.362,24.019L17.297,23.217L16.616,22.597L15.697,22.567L15.558,21.676L15.258,20.931L15.603,19.82C14.144,18.809 12.701,17.377 12.342,17.027C12.128,16.818 12.086,16.665 12.114,16.556C11.742,16.589 11.418,16.428 11.343,15.89C11.238,15.139 10.97,14.62 10.861,14.467C10.908,14.426 11.021,14.33 11.169,14.222C10.633,14.336 10.398,14.005 10.211,13.554C8.626,9.719 8.443,8.229 8.702,7.78C8.477,5.494 9.952,1.428 9.952,1.428C9.925,3.508 9.333,5.871 9.707,7.75C9.734,7.888 9.757,8.02 9.775,8.146C9.787,8.163 9.799,8.179 9.809,8.194C10.281,8.891 12.321,13.714 12.321,13.714L12.17,13.787C12.314,13.794 12.438,13.857 12.521,14.006C12.905,14.701 13.69,15.558 13.17,16.046C13.167,16.049 13.164,16.051 13.161,16.054L13.352,15.988C13.352,15.988 13.972,16.305 13.98,16.376C14.7,16.886 15.491,17.507 16.154,18.046L16.366,17.365L17.47,15.979L18.468,15.33L19.656,14.359L21.006,13.699L22.651,13.035C22.651,13.035 23.236,12.839 24.054,12.762C24.871,12.685 25.739,12.785 25.739,12.785L26.295,13.216L27.207,13.71L27.887,14.186L28.827,14.795L29.455,15.558L29.832,16.575L30.332,17.094L30.615,17.439L30.703,17.771C31.575,16.852 32.478,15.935 32.917,15.434C32.917,15.434 33.01,15.433 33.14,15.448C33.165,14.994 33.241,14.344 33.251,13.479C33.251,13.479 33.319,13.46 33.426,13.435C33.424,13.433 33.423,13.43 33.422,13.427C33.247,13.043 33.602,12.718 34.011,10.28C34.419,7.842 33.83,8.627 34.321,8.112C34.321,8.112 34.501,8.071 34.729,8.046C34.633,7.496 34.6,6.169 34.472,3C34.174,2.432 34.353,0.871 34.353,0.871C34.763,1.898 34.946,2.529 34.989,2.888C35.114,3.496 35.851,7.195 35.605,8.184C35.657,8.24 35.685,8.316 35.677,8.414C35.624,9.043 35.48,10.074 35.191,11.11C34.902,12.145 35.419,12.915 34.805,13.176C34.667,13.235 34.53,13.3 34.398,13.36C34.606,13.403 34.748,13.513 34.709,13.75C34.596,14.436 34.827,15.841 33.967,16.192C33.966,16.701 33.583,17.568 31.124,19.193L31.197,19.419L31.254,20.816L30.828,21.421L30.561,22.108L29.68,22.961C31.304,22.659 33.015,22.384 33.374,22.287C33.891,22.148 33.906,22.137 33.964,22.355L35.733,21.617C35.733,21.617 35.741,21.662 35.763,21.73C36.895,21.228 38.214,20.196 38.214,20.196C38.343,20.142 38.525,20.124 38.711,20.136C38.699,20.114 38.687,20.093 38.674,20.073C38.295,19.497 43.163,16.779 43.163,16.779C41.016,19.366 39.987,20.341 39.449,20.596C39.448,20.599 39.446,20.602 39.444,20.605C39.247,20.903 37.403,21.888 36.471,22.351C36.496,22.353 36.523,22.354 36.549,22.354C37.237,22.353 36.464,22.555 35.543,22.911C35.189,23.048 34.636,23.258 34.168,23.37C34.135,23.402 34.096,23.438 34.052,23.478C33.636,23.853 29.668,24.283 27.691,24.476L27.303,24.966L27.241,25.589L26.999,25.671L29.541,26.951C29.541,26.951 29.439,27.136 29.298,27.359C29.531,27.171 29.762,27.036 29.762,27.036C30.623,27.409 34.169,30.627 34.655,31.065C35.112,31.479 35.194,31.635 35.224,31.973C35.34,31.928 35.422,31.906 35.422,31.906C35.422,31.906 37.032,33.008 37.1,33.642C37.167,34.276 36.991,34.188 36.411,33.969C35.83,33.749 35.37,34.494 35.302,34.346C34.911,33.501 34.832,33.659 34.508,32.949C34.487,32.903 34.472,32.857 34.463,32.814C34.344,32.789 34.206,32.743 34.048,32.67C32.966,32.173 29.254,28.617 28.886,28.19C28.835,28.13 28.815,28.064 28.819,27.995C28.718,28.093 28.627,28.146 28.563,28.115C28.367,28.021 27.27,27.561 26.135,26.962C26.113,27.042 26.079,27.117 26.036,27.185C27.024,27.582 28.731,28.327 28.551,28.668C28.466,28.831 28.357,29 28.235,29.141C28.559,29.032 28.885,28.97 28.885,28.97C29.101,29.131 30.431,30.63 30.745,31.17C31.059,31.709 31.898,32.479 32.113,32.802C32.292,33.069 32.566,33.548 32.417,33.83C33.108,34.313 33.032,34.663 33.032,34.663L32.854,34.714C33.501,35.09 34.138,36.174 34.16,36.591C34.187,37.094 34.018,36.908 33.418,36.755C32.818,36.603 32.54,37.258 32.46,37.063C32.108,36.207 31.91,35.047 31.91,35.047C31.91,35.047 31.902,35.026 31.894,34.993L31.708,35.047C31.438,34.819 31.212,34.553 31.051,34.297C31.012,34.303 30.973,34.31 30.935,34.316C30.511,34.392 30.604,33.919 29.959,33.139C29.314,32.359 27.421,29.793 27.626,29.482C27.627,29.481 27.627,29.481 27.628,29.48C27.569,29.473 27.51,29.453 27.452,29.417C27.197,29.256 26.148,28.845 25.363,28.383L25.363,28.718C25.363,28.817 25.325,28.908 25.262,28.976C25.825,28.879 26.71,30.073 26.765,30.46C26.828,30.903 24.601,30.706 24.157,30.63C23.848,30.578 23.968,29.861 24.07,29.427C24.048,29.429 24.025,29.431 24.002,29.431L22.787,29.431C22.758,29.431 22.729,29.429 22.701,29.425C22.803,29.858 22.924,30.577 22.615,30.63C22.17,30.706 19.943,30.903 20.006,30.46C20.061,30.073 20.946,28.879 21.509,28.976C21.447,28.908 21.408,28.817 21.408,28.718L21.408,27.955C21.408,27.932 21.41,27.909 21.414,27.887C20.634,28.558 19.516,29.347 19.363,29.732C19.314,29.856 19.201,29.917 19.053,29.933C19.053,29.936 19.053,29.94 19.052,29.943C18.978,30.753 16.425,34.557 16.083,34.965C15.99,35.076 15.818,35.077 15.618,35.02C15.693,35.782 15.457,37.101 15.321,37.326C15.496,37.824 15.591,38.396 15.59,38.698C15.587,39.41 15.469,39.805 15.649,41.545C15.829,43.285 15.705,43.41 15.429,42.984C15.355,42.87 15.237,42.86 15.1,42.899C15.891,43.253 15.766,44.251 16.046,44.713C16.376,45.258 17.461,45.966 18.332,46.26C20.132,46.239 20.029,46.31 19.319,46.428C18.61,46.545 17.993,46.614 17.433,46.304C16.873,45.995 14.865,44.496 14.506,43.78C14.396,43.562 14.36,43.383 14.363,43.24C14.243,43.275 14.151,43.26 14.115,43.138C13.978,42.681 14.087,42.314 14.011,41.655C13.936,40.996 14.006,39.015 13.835,38.489C13.747,38.217 13.845,37.707 13.959,37.279C13.874,37.275 13.806,37.25 13.766,37.191C13.54,36.855 13.537,36.299 13.881,35.181C14.018,34.737 14.296,34.544 14.582,34.474C14.44,34.377 14.347,34.306 14.339,34.3C14.424,34.351 16.989,29.887 17.482,29.355C17.499,29.337 17.517,29.32 17.535,29.304C17.473,29.239 17.434,29.178 17.428,29.126C17.408,28.962 18.023,28.333 18.705,27.69C18.112,27.87 17.582,28.034 17.411,28.178C17.357,28.223 17.295,28.244 17.228,28.244C17.106,28.391 16.906,28.564 16.6,28.768C15.03,29.816 13.663,31.563 12.835,31.401C12.715,31.378 12.605,31.351 12.505,31.32C12.695,31.802 11.902,32.184 11.729,32.76C11.592,33.217 11.342,33.627 11.123,33.794C11.115,33.806 11.107,33.818 11.099,33.829C10.343,34.881 8.496,36.448 7.743,37.182C6.989,37.917 6.866,37.83 6.351,37.847C6.258,37.85 6.168,37.857 6.083,37.865C6.082,37.885 6.079,37.906 6.072,37.928C5.945,38.359 4.811,39.671 4.218,40.106C3.625,40.541 3.692,40.838 2.931,41.043C2.931,41.043 4.816,37.946 4.996,37.79C5.052,37.742 5.191,37.695 5.351,37.667C5.345,37.652 5.341,37.637 5.337,37.62C5.239,37.226 6.116,36.634 7.07,35.98C7.963,35.367 9.479,33.579 9.67,33.352C9.682,33.251 9.689,33.131 9.684,32.997C9.669,32.582 10.023,32.165 10.506,31.587C10.849,31.175 11.344,30.906 11.601,30.785C11.514,30.698 11.432,30.606 11.348,30.511C11.348,30.511 14.762,27.393 16.158,27.08C16.145,27.027 16.139,26.979 16.141,26.937C16.157,26.576 19.008,25.787 20.212,25.47L20.212,25.175L20.108,25.114C20.025,25.155 19.91,25.188 19.757,25.211C18.387,25.422 18.218,25.244 15.551,25.031C12.885,24.819 13.064,24.901 12.579,24.71C12.487,24.674 12.408,24.632 12.34,24.586C11.794,24.63 10.908,24.58 10.52,24.591C10.218,24.6 10.135,24.51 10.076,24.358C9.792,24.418 9.346,24.369 9,24.352C8.298,24.317 7.278,23.939 6.502,23.567C5.725,23.195 0,21.536 0,21.536C0,21.536 7.377,22.77 9.128,23.209C9.591,23.325 9.881,23.412 10.058,23.478ZM21.759,27.575C21.769,27.574 21.779,27.574 21.79,27.574L21.76,27.574C21.76,27.574 21.76,27.575 21.759,27.575ZM22.246,29.099L21.79,29.099C21.765,29.099 21.741,29.097 21.718,29.092C21.72,29.095 21.722,29.097 21.724,29.099C22.1,29.517 22.211,29.433 22.384,29.278C22.327,29.227 22.28,29.167 22.246,29.099ZM25.053,29.092C25.03,29.097 25.006,29.099 24.982,29.099L24.543,29.099C24.507,29.17 24.457,29.234 24.396,29.285C24.564,29.436 24.678,29.51 25.047,29.099C25.049,29.097 25.051,29.095 25.053,29.092ZM36.147,42.262C36.2,42.422 34.614,42.77 34.649,42.444C34.683,42.118 34.036,40.938 33.481,39.741C32.926,38.545 32.307,37.048 33.024,36.862C33.741,36.676 34.18,37.069 34.636,38.682C35.092,40.295 36.147,42.262 36.147,42.262ZM34.163,46.501C35.92,45.32 34.946,43.072 34.872,42.783C34.798,42.494 35.437,42.65 35.658,42.579C36.42,42.333 36.186,42.52 36.148,42.807C35.642,46.597 34.163,46.501 34.163,46.501Z"/>
    <path d="M23.51,12.946L23.51,0.208" style="fill:none;stroke:rgb(180,180,180);stroke-width:0.42px;"/>
    <path id="S" d="M24.323,19.473C24.274,19.617 24.103,19.709 23.943,19.677C23.783,19.645 23.694,19.501 23.743,19.357C23.743,19.357 24.33,17.664 24.308,16.331C24.303,15.998 24.26,15.688 24.153,15.44C24.02,15.133 23.781,14.93 23.363,14.948C23.191,14.955 23.034,15.034 22.891,15.157C22.713,15.311 22.56,15.529 22.434,15.789C21.79,17.11 21.841,19.464 23.409,20.718C25.962,22.759 26.325,24.514 24.673,25.89C24.24,26.25 23.67,26.419 23.059,26.39C22.211,26.351 21.278,25.925 20.591,25.122C19.854,24.261 19.394,22.962 19.649,21.26C19.671,21.112 19.824,20.998 19.99,21.006C20.156,21.013 20.273,21.138 20.251,21.286C19.908,23.576 20.966,25.065 22.2,25.621C22.946,25.957 23.752,25.952 24.276,25.515C25.696,24.332 25.174,22.882 22.98,21.128C21.226,19.725 21.158,17.092 21.879,15.613C22.232,14.888 22.784,14.438 23.385,14.413C24.24,14.376 24.68,14.86 24.841,15.587C25.16,17.022 24.323,19.473 24.323,19.473Z" style="fill:rgb(255,0,0);stroke:rgb(255,0,0);stroke-width:0.83px;stroke-linecap:butt;stroke-miterlimit:2;"/>
</svg>
