<?xml version="1.0" encoding="UTF-8" standalone="no"?>
<!DOCTYPE svg PUBLIC "-//W3C//DTD SVG 1.1//EN" "http://www.w3.org/Graphics/SVG/1.1/DTD/svg11.dtd">
<svg width="100%" height="100%" viewBox="0 0 50 52" version="1.1" xmlns="http://www.w3.org/2000/svg" xmlns:xlink="http://www.w3.org/1999/xlink" xml:space="preserve" xmlns:serif="http://www.serif.com/" style="fill-rule:evenodd;clip-rule:evenodd;stroke-linejoin:round;stroke-miterlimit:2;">
    <circle cx="26.036" cy="28.46" r="20.246" style="fill:#fd0;"/>
    <path d="M39.875,23.396L39.199,23.096C40.375,22.574 41.743,21.501 41.743,21.501C41.782,21.47 41.825,21.445 41.871,21.425C41.939,21.397 42.017,21.373 42.1,21.355C42.185,21.19 42.335,20.993 42.553,20.788C43.726,19.684 47.194,17.739 47.194,17.739C47.432,17.606 47.731,17.661 47.905,17.871C48.079,18.081 48.079,18.385 47.905,18.594C45.605,21.365 44.417,22.482 43.781,22.839C43.645,22.97 43.42,23.144 43.129,23.327C42.589,23.668 41.793,24.102 41.122,24.452L41.121,24.464L41.049,24.643L40.913,24.8L40.718,24.922C40.501,25.028 39.974,25.2 39.394,25.424C39.028,25.566 38.473,25.776 37.975,25.909C37.966,25.916 37.958,25.924 37.949,25.933C37.824,26.045 37.499,26.196 37.015,26.312C35.656,26.637 32.727,26.961 30.951,27.137L30.782,27.35L30.749,27.687L32.922,28.782C32.999,28.821 33.065,28.875 33.115,28.94L33.132,28.86C34.093,29.275 38.062,32.848 38.603,33.338C39.082,33.77 39.264,34.022 39.345,34.31L39.377,34.204C39.377,34.204 40.294,34.834 40.872,35.464C41.202,35.823 41.413,36.203 41.444,36.498C41.466,36.705 41.459,36.874 41.435,37.011C43.499,39.145 45.289,39.999 46.101,40.428C46.39,40.581 46.582,40.708 46.675,40.803C46.746,40.875 46.796,40.937 46.83,40.989L46.927,41.184L46.955,41.366C47.758,42.118 49.475,43.787 49.475,43.787C49.678,43.984 49.704,44.301 49.536,44.529C49.367,44.756 49.057,44.825 48.808,44.689C48.808,44.689 46.212,43.265 45.17,42.733C45.067,42.68 44.98,42.626 44.908,42.572L44.764,42.559C44.508,42.512 44.248,42.393 43.965,42.209C43.643,41.999 43.276,41.692 42.798,41.346C42.242,40.943 40.79,39.938 39.796,39.048C39.315,38.617 38.939,38.202 38.769,37.881C38.767,37.877 38.764,37.873 38.762,37.868L38.654,37.827L38.526,37.726L38.413,37.56C38.004,36.675 37.91,36.801 37.588,36.122C37.506,36.093 37.42,36.058 37.328,36.016C36.844,35.793 35.889,35.027 34.889,34.155C35.283,34.616 35.772,35.089 35.933,35.33C36.106,35.589 36.332,35.998 36.388,36.351C36.398,36.409 36.403,36.465 36.405,36.521C36.964,37.002 37.033,37.41 37.033,37.604C37.356,37.911 37.655,38.308 37.871,38.685C38.107,39.1 38.239,39.496 38.252,39.733C38.26,39.875 38.254,39.984 38.241,40.066L38.144,40.348C38.36,40.718 38.561,41.218 38.749,41.881C39.229,43.583 40.344,45.658 40.344,45.658C40.359,45.686 40.372,45.716 40.382,45.746L40.413,45.917L40.411,45.927L40.431,45.962L40.474,46.109L40.48,46.271C40.474,46.345 40.425,46.46 40.408,46.592C39.77,51.363 37.653,51.096 37.653,51.096C37.411,51.081 37.206,50.913 37.143,50.679C37.08,50.445 37.173,50.197 37.374,50.062C38.128,49.555 38.284,48.813 38.256,48.173C38.224,47.462 37.98,46.852 37.92,46.661L37.908,46.655L37.801,46.551L37.71,46.406L37.658,46.233L37.655,46.063C37.654,46.075 37.653,46.105 37.653,46.105C37.653,46.105 37.551,45.783 37.443,45.539C37.192,44.971 36.795,44.2 36.435,43.424C36.016,42.52 35.592,41.463 35.54,40.758L35.467,40.713L35.384,40.617L35.316,40.49C35.052,39.848 34.863,39.058 34.764,38.588C34.726,38.568 34.69,38.545 34.657,38.517C34.418,38.315 34.206,38.089 34.031,37.86L34.005,37.861L33.854,37.833L33.708,37.776L33.515,37.643L33.337,37.428C33.206,37.227 33.085,36.855 32.685,36.371C32.106,35.671 30.635,33.686 30.186,32.742C30.131,32.625 30.089,32.518 30.06,32.423C30.023,32.402 29.976,32.378 29.921,32.351C30.083,32.622 30.19,32.869 30.212,33.021L30.216,33.184L30.18,33.348L30.11,33.491L30.023,33.603C29.894,33.739 29.62,33.877 29.236,33.929C28.465,34.033 27.084,33.905 26.721,33.843L26.508,33.774L26.328,33.648L26.184,33.466L26.078,33.204C26.035,33.03 26.034,32.793 26.056,32.547L25.901,32.547C25.923,32.792 25.922,33.029 25.879,33.203L25.774,33.466L25.629,33.648L25.449,33.773L25.236,33.843C24.81,33.916 23.019,34.06 22.358,33.852L22.088,33.73L21.894,33.558L21.766,33.313L21.74,33.165L21.745,33.021C21.749,32.996 21.755,32.968 21.763,32.937L21.743,32.948C21.625,33.29 21.399,33.768 21.101,34.298C20.215,35.878 18.743,38.041 18.477,38.359L18.251,38.547L18.115,38.598C18.097,39.142 18.012,39.754 17.918,40.189C17.886,40.337 17.85,40.468 17.815,40.574C17.986,41.131 18.074,41.724 18.073,42.054C18.07,42.812 17.943,43.233 18.134,45.087C18.222,45.936 18.243,46.455 18.219,46.733C18.209,46.849 18.191,46.938 18.171,47.005L18.132,47.089C18.174,47.19 18.209,47.294 18.24,47.4C18.336,47.73 18.355,48.078 18.486,48.294C18.788,48.792 19.77,49.41 20.578,49.702C21.586,49.693 22.065,49.723 22.193,49.758L22.382,49.841L22.53,49.98L22.629,50.19L22.645,50.324L22.63,50.454L22.58,50.588L22.491,50.715L22.279,50.864C22.195,50.901 21.968,50.958 21.652,51.01C20.742,51.161 19.954,51.21 19.236,50.813C18.79,50.566 17.536,49.661 16.685,48.858C16.276,48.473 15.96,48.102 15.823,47.828C15.757,47.697 15.71,47.575 15.676,47.461L15.568,47.379L15.472,47.269L15.362,47.039C15.204,46.512 15.317,46.09 15.23,45.33C15.15,44.637 15.241,42.553 15.062,41.999C14.97,41.716 15.003,41.242 15.094,40.775L15.055,40.73C14.756,40.284 14.654,39.544 15.109,38.063C15.218,37.709 15.385,37.455 15.582,37.274C15.581,37.164 15.613,37.053 15.679,36.956C15.706,36.916 15.737,36.881 15.771,36.851C15.776,36.843 15.782,36.835 15.787,36.828C16.266,36.142 18.22,32.795 18.957,31.762L18.943,31.717C18.935,31.722 18.927,31.727 18.92,31.732C17.725,32.529 16.639,33.698 15.786,34.268C15.361,34.552 14.966,34.696 14.626,34.698C14.58,34.79 14.521,34.882 14.453,34.973C14.338,35.125 14.188,35.279 14.053,35.444C13.971,35.543 13.889,35.644 13.854,35.762C13.681,36.338 13.359,36.849 13.075,37.108C12.231,38.272 10.206,40 9.375,40.81C8.878,41.294 8.577,41.492 8.328,41.587C8.084,41.68 7.878,41.681 7.565,41.69C7.485,41.834 7.377,42.002 7.245,42.18C6.763,42.833 5.968,43.684 5.484,44.038C5.195,44.25 5.07,44.432 4.922,44.582C4.7,44.807 4.452,44.998 3.899,45.147C3.675,45.207 3.438,45.125 3.299,44.94C3.16,44.755 3.148,44.504 3.268,44.306C3.268,44.306 4.586,42.14 5.214,41.187C5.416,40.88 5.575,40.681 5.625,40.637C5.672,40.596 5.748,40.55 5.844,40.507C5.89,40.374 5.971,40.231 6.09,40.085C6.422,39.675 7.149,39.166 7.929,38.631C8.757,38.063 10.094,36.522 10.524,36.015C10.525,35.972 10.526,35.926 10.524,35.877C10.514,35.603 10.589,35.324 10.749,35.032C10.921,34.717 11.205,34.372 11.548,33.962C11.783,33.679 12.075,33.448 12.344,33.271C12.304,33.081 12.363,32.877 12.516,32.737C12.516,32.737 14.366,31.049 16.005,29.917C16.587,29.515 17.149,29.185 17.606,29.002L17.706,28.834C17.79,28.734 17.951,28.606 18.19,28.484C18.499,28.326 18.985,28.144 19.531,27.963C19.018,27.91 18.357,27.84 17.42,27.765C14.375,27.522 14.582,27.597 14.028,27.379C13.959,27.352 13.896,27.322 13.838,27.292C13.237,27.32 12.401,27.277 12.014,27.288C11.698,27.297 11.501,27.229 11.362,27.144L11.267,27.061C10.963,27.07 10.611,27.042 10.318,27.028C9.495,26.987 8.296,26.556 7.387,26.12C6.554,25.721 0.408,23.946 0.408,23.946C0.121,23.862 -0.052,23.569 0.014,23.276C0.081,22.984 0.364,22.794 0.659,22.844C0.659,22.844 8.711,24.192 10.623,24.671C11.02,24.771 11.307,24.853 11.512,24.92L11.513,24.92C11.691,24.879 11.852,24.863 11.852,24.863L11.879,25.429C11.896,25.427 11.906,25.426 11.906,25.426C11.919,25.428 11.933,25.43 11.947,25.432L11.988,24.866C12.302,24.912 12.87,24.962 13.361,24.997C13.517,24.913 13.733,24.844 14.033,24.821C14.52,24.783 15.338,24.853 16.687,25.153C17.568,25.348 18.277,25.458 18.837,25.516L18.395,25.114L17.605,25.088C17.333,25.079 17.106,24.878 17.064,24.61L16.923,23.706L16.621,22.957C16.573,22.836 16.567,22.702 16.606,22.578C16.606,22.578 16.86,21.76 16.86,21.761C15.363,20.665 13.952,19.268 13.583,18.908C13.441,18.77 13.343,18.639 13.277,18.518C13.122,18.478 12.977,18.41 12.849,18.313C12.603,18.128 12.399,17.827 12.331,17.345C12.257,16.811 12.099,16.403 11.987,16.185C11.922,16.133 11.869,16.066 11.831,15.988L11.786,15.837C11.509,15.649 11.301,15.335 11.139,14.944C9.896,11.938 9.435,10.215 9.362,9.281C9.331,8.87 9.374,8.571 9.447,8.363C9.268,5.767 10.849,1.359 10.849,1.359C10.943,1.099 11.211,0.945 11.482,0.995C11.754,1.045 11.95,1.283 11.947,1.559C11.917,3.781 11.27,6.304 11.669,8.312C11.691,8.424 11.711,8.534 11.728,8.64C12.307,9.572 14.476,14.682 14.476,14.682C14.48,14.691 14.484,14.701 14.488,14.71L14.508,14.726L14.667,14.946C14.932,15.423 15.354,15.973 15.526,16.453C15.599,16.657 15.637,16.853 15.634,17.037C15.827,17.147 16.054,17.284 16.13,17.358L16.142,17.374C16.694,17.767 17.28,18.216 17.828,18.65C17.849,18.603 17.875,18.558 17.907,18.517L19.108,17.011C19.145,16.964 19.191,16.923 19.242,16.89L20.301,16.201L21.568,15.165C21.602,15.138 21.638,15.114 21.677,15.095L23.144,14.378C23.156,14.372 23.168,14.367 23.181,14.362L24.969,13.64C24.979,13.636 24.99,13.632 25,13.629C25,13.629 25.689,13.395 26.652,13.304C27.597,13.216 28.601,13.33 28.601,13.33C28.703,13.342 28.801,13.382 28.883,13.445L29.45,13.885L30.401,14.401C30.42,14.411 30.438,14.423 30.456,14.435L31.186,14.946L32.199,15.602C32.248,15.633 32.292,15.672 32.329,15.717L33.011,16.547C33.051,16.596 33.082,16.651 33.104,16.71L33.473,17.704L33.934,18.183C33.948,18.197 33.961,18.212 33.973,18.227L34.069,18.345C34.822,17.56 35.528,16.834 35.91,16.398C35.764,16.565 35.729,16.803 35.82,17.005C35.853,17.077 35.899,17.139 35.955,17.19C36.102,17.032 36.231,16.891 36.336,16.771C36.336,16.771 36.336,16.771 36.337,16.771L36.337,16.484L36.014,16.757C36.04,16.268 36.122,15.57 36.133,14.641C36.131,14.792 36.19,14.938 36.296,15.045C36.399,15.149 36.538,15.209 36.683,15.213C36.685,15.184 36.686,15.156 36.687,15.126L36.589,14.409L36.379,14.846L36.369,14.825C36.267,14.599 36.24,14.385 36.299,14.066C36.375,13.653 36.657,12.926 36.966,11.078C37.205,9.648 37.109,9.353 37.085,9.237L37.07,9.061L37.105,8.876C37.131,8.802 37.195,8.694 37.452,8.425C37.295,8.589 37.252,8.83 37.341,9.038C37.405,9.189 37.53,9.301 37.68,9.352C37.645,9.003 37.555,9.13 37.807,8.871L37.797,8.775L37.748,8.841C37.642,8.242 37.602,6.804 37.466,3.393C37.374,3.162 37.316,2.858 37.291,2.531C37.233,1.771 37.334,0.881 37.334,0.881C37.364,0.624 37.564,0.419 37.821,0.385C38.078,0.351 38.326,0.495 38.422,0.736C38.887,1.902 39.092,2.628 39.146,3.042C39.249,3.546 39.667,5.652 39.819,7.247C39.879,7.869 39.892,8.421 39.846,8.799L39.859,8.826L39.897,9.01L39.899,9.191C39.84,9.898 39.678,11.059 39.352,12.225C39.179,12.845 39.31,13.37 39.299,13.746C39.286,14.173 39.169,14.493 38.844,14.713L38.846,14.718L38.842,15.034C38.766,15.491 38.824,16.235 38.679,16.842C38.57,17.301 38.36,17.691 38.007,17.944C37.942,18.259 37.772,18.65 37.369,19.134C36.946,19.64 36.233,20.285 35.034,21.105L35.094,22.597C35.099,22.722 35.063,22.844 34.991,22.946L34.568,23.546L34.354,24.1C35.48,23.903 36.421,23.744 36.685,23.673C36.975,23.594 37.148,23.553 37.255,23.545L37.451,23.554L37.62,23.607L37.631,23.614L39.178,22.968C38.931,23.071 38.79,23.333 38.84,23.595L38.942,23.68L39.396,23.49C39.396,23.49 39.405,23.539 39.429,23.613C39.576,23.548 39.725,23.475 39.875,23.396ZM22.407,27.296L22.459,27.696C22.46,27.696 22.461,27.695 22.462,27.695L22.53,27.45L22.53,27.357L22.417,27.291C22.414,27.292 22.41,27.294 22.407,27.296ZM16.474,36.811C16.463,36.803 16.451,36.795 16.439,36.788C16.341,36.729 16.22,36.69 16.075,36.712C16.197,36.696 16.325,36.72 16.439,36.788L16.247,37.07L16.226,37.187C16.283,37.108 16.368,36.979 16.474,36.811ZM28.127,30.92C28.186,30.924 28.247,30.933 28.309,30.947C28.247,30.912 28.186,30.878 28.127,30.843L28.127,30.92ZM35.236,38.066L35.173,38.238L35.225,38.591L35.318,38.475C35.268,38.237 35.242,38.084 35.242,38.084C35.242,38.084 35.239,38.077 35.236,38.066ZM35.328,38.523L35.288,38.583L35.3,38.581L35.333,38.543C35.331,38.536 35.33,38.529 35.328,38.523ZM32.097,31.613L32.105,31.589C32.081,31.566 32.058,31.543 32.035,31.521C32.031,31.528 32.028,31.535 32.024,31.541C32.045,31.562 32.07,31.586 32.097,31.613ZM39.201,34.773L39.255,34.6L38.942,34.405L38.982,34.695C39.03,34.679 39.058,34.672 39.058,34.672C39.058,34.672 39.112,34.709 39.201,34.773ZM34.489,21.645L34.959,21.156C34.881,21.208 34.802,21.261 34.721,21.315L34.489,21.638L34.489,21.645ZM24.763,31.662C24.755,31.649 24.747,31.635 24.74,31.621L24.739,31.621L24.739,31.701C24.746,31.688 24.754,31.675 24.763,31.662ZM27.241,31.621L27.236,31.621C27.226,31.641 27.215,31.66 27.203,31.679C27.217,31.701 27.229,31.725 27.24,31.749L27.241,31.621ZM35.293,38.589L35.281,38.592L35.242,38.65L35.293,38.589ZM15.857,37.759L15.806,37.72L15.805,37.723C15.822,37.736 15.839,37.748 15.857,37.759Z"/>
    <path id="S" d="M27.426,21.308L27.36,21.449L27.271,21.569L27.167,21.666L27.05,21.742L26.922,21.798L26.786,21.831L26.643,21.842L26.496,21.826L26.351,21.782L26.217,21.711L26.101,21.614L26.006,21.494L25.939,21.354L25.904,21.201L25.904,21.042L25.939,20.887C25.939,20.887 26.55,19.134 26.528,17.753C26.523,17.456 26.492,17.179 26.396,16.957C26.326,16.793 26.197,16.686 25.973,16.696C25.885,16.7 25.81,16.751 25.737,16.814C25.585,16.945 25.459,17.134 25.351,17.356C24.724,18.643 24.759,20.939 26.286,22.159C28.099,23.609 28.929,24.97 28.921,26.151C28.915,26.996 28.506,27.783 27.668,28.481C27.113,28.943 26.384,29.166 25.603,29.13C24.571,29.082 23.433,28.571 22.597,27.594C21.727,26.576 21.169,25.046 21.47,23.036L21.511,22.882L21.579,22.747L21.668,22.632L21.774,22.538L21.892,22.465L22.022,22.412L22.161,22.38L22.308,22.374L22.456,22.394L22.596,22.441L22.726,22.514L22.839,22.613L22.93,22.736L22.995,22.879L23.026,23.036L23.02,23.198C22.687,25.424 23.677,26.888 24.876,27.429C25.515,27.717 26.207,27.752 26.657,27.378C27.991,26.267 27.318,24.962 25.255,23.313C23.172,21.647 23.078,18.524 23.934,16.768C24.402,15.806 25.162,15.243 25.959,15.209C26.562,15.184 27.015,15.355 27.349,15.648C27.675,15.932 27.892,16.341 28.002,16.84C28.368,18.489 27.426,21.307 27.426,21.307L27.426,21.308Z" style="fill:#fff;"/>
    <path d="M26.34,14.068C26.34,14.193 26.239,14.294 26.114,14.294C25.989,14.294 25.887,14.193 25.887,14.068L25.887,0.226C25.887,0.101 25.989,-0 26.114,0C26.239,0 26.34,0.101 26.34,0.226L26.34,14.068Z" style="fill:#b4b4b4;"/>
</svg>
